<?xml version="1.0" encoding="UTF-8" standalone="no"?>
<!-- Created with Inkscape (http://www.inkscape.org/) -->

<svg
   xmlns:dc="http://purl.org/dc/elements/1.1/"
   xmlns:cc="http://creativecommons.org/ns#"
   xmlns:rdf="http://www.w3.org/1999/02/22-rdf-syntax-ns#"
   xmlns:svg="http://www.w3.org/2000/svg"
   xmlns="http://www.w3.org/2000/svg"
   xmlns:sodipodi="http://sodipodi.sourceforge.net/DTD/sodipodi-0.dtd"
   xmlns:inkscape="http://www.inkscape.org/namespaces/inkscape"
   width="18.767841mm"
   height="43.920834mm"
   viewBox="0 0 18.767841 43.920834"
   version="1.1"
   id="svg1071"
   inkscape:version="0.92.4 (5da689c313, 2019-01-14)"
   sodipodi:docname="show_banner_button.svg">
  <defs
     id="defs1065">
    <clipPath
       id="clipPath4729"
       clipPathUnits="userSpaceOnUse">
      <path
         inkscape:connector-curvature="0"
         id="path4731"
         d="m 73.689467,119.06593 c -2.232216,0 -4.029179,1.88993 -4.029179,4.23709 V 166.498 c 0,2.34716 1.796963,4.2371 4.029179,4.2371 h 18.006311 c 0.131143,0 0.260718,-0.009 0.38857,-0.0208 v -51.62755 c -0.127852,-0.0127 -0.257427,-0.0209 -0.38857,-0.0209 z"
         style="opacity:0.34000017;fill:#000000;stroke:#000000;stroke-width:1.91134322;stroke-miterlimit:4;stroke-dasharray:none;stroke-opacity:1" />
    </clipPath>
  </defs>
  <sodipodi:namedview
     id="base"
     pagecolor="#ffffff"
     bordercolor="#666666"
     borderopacity="1.0"
     inkscape:pageopacity="0.0"
     inkscape:pageshadow="2"
     inkscape:zoom="1.979899"
     inkscape:cx="178.30726"
     inkscape:cy="-20.242681"
     inkscape:document-units="mm"
     inkscape:current-layer="layer1"
     showgrid="false"
     inkscape:window-width="1920"
     inkscape:window-height="1017"
     inkscape:window-x="-8"
     inkscape:window-y="-8"
     inkscape:window-maximized="1" />
  <metadata
     id="metadata1068">
    <rdf:RDF>
      <cc:Work
         rdf:about="">
        <dc:format>image/svg+xml</dc:format>
        <dc:type
           rdf:resource="http://purl.org/dc/dcmitype/StillImage" />
        <dc:title></dc:title>
      </cc:Work>
    </rdf:RDF>
  </metadata>
  <g
     inkscape:label="Layer 1"
     inkscape:groupmode="layer"
     id="layer1"
     transform="translate(-140.29465,-120.06935)">
    <g
       transform="translate(67.432483,-27.283346)"
       id="g1005">
      <g
         id="g4743"
         transform="translate(-41.003429,81.557914)">
        <rect
           y="65.925911"
           x="114.02128"
           height="43.658566"
           width="18.457003"
           id="rect4739"
           style="opacity:1;fill:#000000;fill-opacity:1;stroke:#000000;stroke-width:0.26226729;stroke-opacity:1" />
        <path
           transform="matrix(1.0305572,0,0,1,37.73525,-56.722575)"
           clip-path="url(#clipPath4729)"
           style="opacity:1;fill:#000000;stroke:#d0cece;stroke-width:1.59823358;stroke-miterlimit:4;stroke-dasharray:none;stroke-opacity:1"
           d="m 78.112212,123.31655 c -1.90586,0 -3.4401,1.54773 -3.4401,3.4699 v 35.37379 c 0,1.92217 1.53424,3.4699 3.4401,3.4699 h 15.37374 c 0.11197,0 0.2226,-0.007 0.33176,-0.017 v -42.27952 c -0.10916,-0.0104 -0.21979,-0.0171 -0.33176,-0.0171 z"
           id="path4741"
           inkscape:connector-curvature="0" />
      </g>
      <g
         id="text936"
         style="font-style:normal;font-variant:normal;font-weight:normal;font-stretch:normal;font-size:25.39999962px;line-height:1.25;font-family:'Montserrat Alternates';-inkscape-font-specification:'Montserrat Alternates';letter-spacing:0px;word-spacing:0px;fill:#d0cece;fill-opacity:1;stroke:none;stroke-width:0.26458332"
         transform="rotate(-90)"
         aria-label="show">
        <path
           inkscape:connector-curvature="0"
           id="path954"
           style="font-size:11.28888893px;fill:#d0cece;fill-opacity:1;stroke-width:0.26458332"
           d="m -179.93661,82.272791 q -0.49671,-0.282222 -0.98213,-0.428978 -0.48543,-0.158044 -0.86925,-0.158044 -0.31609,0 -0.508,0.112889 -0.19191,0.112888 -0.19191,0.338666 0,0.248356 0.25964,0.383822 0.25965,0.135467 0.84667,0.3048 0.64347,0.191912 1.06116,0.383823 0.41769,0.180622 0.72249,0.553155 0.3048,0.361245 0.3048,0.959556 0,0.903111 -0.69992,1.411111 -0.68862,0.496711 -1.77235,0.496711 -0.74507,0 -1.43369,-0.214489 -0.68862,-0.225778 -1.19662,-0.632178 l 0.56444,-1.174044 q 0.46285,0.361244 1.02729,0.564444 0.57573,0.191911 1.08373,0.191911 0.34996,0 0.55316,-0.112888 0.21449,-0.124178 0.21449,-0.361245 0,-0.259644 -0.27093,-0.4064 -0.25965,-0.146755 -0.84667,-0.316089 -0.62089,-0.180622 -1.03858,-0.361244 -0.4064,-0.180622 -0.69991,-0.541867 -0.29351,-0.372533 -0.29351,-0.959555 0,-0.903112 0.67733,-1.399823 0.67734,-0.496711 1.71591,-0.496711 0.62089,0 1.24178,0.180622 0.62089,0.169334 1.12889,0.496712 z" />
        <path
           inkscape:connector-curvature="0"
           id="path956"
           style="font-size:11.28888893px;fill:#d0cece;fill-opacity:1;stroke-width:0.26458332"
           d="m -174.24648,80.421413 q 1.02729,0 1.6256,0.632178 0.6096,0.632178 0.6096,1.693333 v 3.815645 h -1.73849 v -3.307645 q 0,-0.575733 -0.32738,-0.903111 -0.31609,-0.338667 -0.86924,-0.338667 -0.64347,0.01129 -1.02729,0.451556 -0.37254,0.428978 -0.37254,1.106311 v 2.991556 h -1.73848 v -8.376356 h 1.73848 v 3.375378 q 0.63218,-1.1176 2.09974,-1.140178 z" />
        <path
           inkscape:connector-curvature="0"
           id="path958"
           style="font-size:11.28888893px;fill:#d0cece;fill-opacity:1;stroke-width:0.26458332"
           d="m -167.76913,80.432702 q 0.95956,0 1.69333,0.383822 0.74507,0.383822 1.15147,1.083734 0.4064,0.699911 0.4064,1.6256 0,0.9144 -0.4064,1.6256 -0.4064,0.699911 -1.15147,1.095022 -0.73377,0.383822 -1.69333,0.383822 -0.97084,0 -1.71591,-0.383822 -0.73378,-0.395111 -1.14018,-1.095022 -0.4064,-0.7112 -0.4064,-1.6256 0,-0.925689 0.4064,-1.6256 0.4064,-0.699912 1.14018,-1.083734 0.74507,-0.383822 1.71591,-0.383822 z m 0,1.444978 q -0.67733,0 -1.10631,0.462844 -0.41769,0.462845 -0.41769,1.207911 0,0.745067 0.41769,1.207911 0.42898,0.462845 1.10631,0.462845 0.66604,0 1.08373,-0.462845 0.42898,-0.462844 0.42898,-1.207911 0,-0.745066 -0.42898,-1.207911 -0.41769,-0.462844 -1.08373,-0.462844 z" />
        <path
           inkscape:connector-curvature="0"
           id="path960"
           style="font-size:11.28888893px;fill:#d0cece;fill-opacity:1;stroke-width:0.26458332"
           d="m -153.81818,83.977413 q 0,0.790222 -0.32738,1.399822 -0.31609,0.598311 -0.90311,0.936978 -0.57573,0.327378 -1.34338,0.327378 -0.69991,0 -1.34337,-0.338667 -0.63218,-0.349955 -0.94827,-0.903111 -0.3048,0.553156 -0.93698,0.903111 -0.63218,0.338667 -1.34338,0.338667 -0.76764,0 -1.35466,-0.327378 -0.58702,-0.338667 -0.9144,-0.936978 -0.32738,-0.6096 -0.32738,-1.399822 v -3.488267 h 1.7272 v 3.409245 q 0,0.519289 0.31609,0.846667 0.31609,0.316088 0.83538,0.316088 0.51929,0 0.82409,-0.316088 0.3048,-0.316089 0.3048,-0.846667 v -3.409245 h 1.71591 v 3.409245 q 0,0.519289 0.32737,0.846667 0.32738,0.316088 0.85796,0.316088 0.49671,0 0.80151,-0.316088 0.3048,-0.327378 0.3048,-0.846667 v -3.409245 h 1.7272 z" />
      </g>
    </g>
  </g>
</svg>
