<?xml version="1.0" encoding="UTF-8" standalone="no"?>
<!-- Created with Inkscape (http://www.inkscape.org/) -->

<svg
   xmlns:dc="http://purl.org/dc/elements/1.1/"
   xmlns:cc="http://creativecommons.org/ns#"
   xmlns:rdf="http://www.w3.org/1999/02/22-rdf-syntax-ns#"
   xmlns:svg="http://www.w3.org/2000/svg"
   xmlns="http://www.w3.org/2000/svg"
   xmlns:sodipodi="http://sodipodi.sourceforge.net/DTD/sodipodi-0.dtd"
   xmlns:inkscape="http://www.inkscape.org/namespaces/inkscape"
   version="1.1"
   id="svg815"
   width="300"
   height="300"
   viewBox="0 0 300 300"
   sodipodi:docname="grid_nokeret.svg"
   inkscape:version="0.92.4 (5da689c313, 2019-01-14)">
  <metadata
     id="metadata821">
    <rdf:RDF>
      <cc:Work
         rdf:about="">
        <dc:format>image/svg+xml</dc:format>
        <dc:type
           rdf:resource="http://purl.org/dc/dcmitype/StillImage" />
        <dc:title></dc:title>
      </cc:Work>
    </rdf:RDF>
  </metadata>
  <defs
     id="defs819" />
  <sodipodi:namedview
     pagecolor="#ffffff"
     bordercolor="#666666"
     borderopacity="1"
     objecttolerance="10"
     gridtolerance="10"
     guidetolerance="10"
     inkscape:pageopacity="0"
     inkscape:pageshadow="2"
     inkscape:window-width="1920"
     inkscape:window-height="1017"
     id="namedview817"
     showgrid="false"
     inkscape:zoom="1.4133334"
     inkscape:cx="151.51386"
     inkscape:cy="151.99379"
     inkscape:window-x="-8"
     inkscape:window-y="-8"
     inkscape:window-maximized="1"
     inkscape:current-layer="svg815" />
  <rect
     style="opacity:1;fill:#e74a4a;fill-opacity:1;stroke:#e74a4a;stroke-width:3.2692914;stroke-miterlimit:4;stroke-dasharray:none;stroke-opacity:1"
     id="rect947"
     width="0"
     height="0"
     x="-15.634731"
     y="16.073284" />
  <g
     id="g979">
    <rect
       y="3.5377359"
       x="3.1415389"
       height="293.66763"
       width="293.52109"
       id="rect951"
       style="opacity:1;fill:#d6d6d6;fill-opacity:1;stroke:#d6d6d6;stroke-width:3.2692914;stroke-miterlimit:4;stroke-dasharray:none;stroke-opacity:1" />
    <path
       d="m 125.04262,244.32009 v 26.37792 q 0,4.10804 -1.94591,7.13501 -1.94591,3.08103 -5.45936,4.70262 -3.51345,1.67565 -8.10797,1.67565 -3.5675,0 -6.81069,-1.02701 -3.189134,-1.02701 -5.837736,-2.81076 l 3.081027,-5.83774 q 4.108039,2.91887 9.026869,2.91887 3.56751,0 5.67558,-1.78375 2.10807,-1.7297 2.10807,-4.70262 v -3.29724 q -1.45944,2.05401 -3.67561,3.13508 -2.21618,1.08106 -5.081,1.08106 -3.72966,0 -6.64853,-1.7297 -2.864813,-1.78375 -4.486406,-4.97289 -1.56754,-3.18913 -1.56754,-7.35122 0,-4.10804 1.56754,-7.18906 1.621593,-3.13508 4.486406,-4.86478 2.91887,-1.7297 6.64853,-1.7297 2.81077,0 5.02694,1.13511 2.21618,1.08106 3.72967,3.08103 v -3.94588 z m -15.08081,21.24287 q 3.02697,0 4.91883,-2.05401 1.89186,-2.10807 1.89186,-5.45937 0,-3.35129 -1.89186,-5.45936 -1.89186,-2.10807 -4.91883,-2.10807 -3.02698,0 -4.91884,2.10807 -1.89186,2.10807 -1.94591,5.45936 0.0541,3.3513 1.89186,5.45937 1.89186,2.05401 4.97289,2.05401 z"
       style="font-style:normal;font-variant:normal;font-weight:normal;font-stretch:normal;font-size:54.05310822px;line-height:1.25;font-family:'Montserrat Alternates';-inkscape-font-specification:'Montserrat Alternates';letter-spacing:0px;word-spacing:0px;fill:#000000;fill-opacity:1;stroke:#000000;stroke-width:1"
       id="path899"
       inkscape:connector-curvature="0" />
    <path
       d="m 140.96295,249.56324 q 1.51349,-2.70265 3.94588,-4.10803 2.43239,-1.40538 5.67558,-1.45944 v 7.83771 q -0.43243,-0.0541 -1.29728,-0.0541 -3.83777,0 -6.108,2.10807 -2.21618,2.05402 -2.21618,5.51342 v 13.99976 h -8.32418 v -29.08058 h 8.32418 z"
       style="font-style:normal;font-variant:normal;font-weight:normal;font-stretch:normal;font-size:54.05310822px;line-height:1.25;font-family:'Montserrat Alternates';-inkscape-font-specification:'Montserrat Alternates';letter-spacing:0px;word-spacing:0px;fill:#000000;fill-opacity:1;stroke:#000000;stroke-width:1"
       id="path901"
       inkscape:connector-curvature="0" />
    <path
       d="m 155.12571,244.32009 h 8.32418 v 29.08058 h -8.32418 z m 4.10804,-12.91869 q 1.99996,0 3.24318,1.29727 1.29728,1.29728 1.29728,3.3513 0,2.05402 -1.29728,3.35129 -1.24322,1.29727 -3.24318,1.29727 -1.94591,0 -3.24319,-1.29727 -1.24322,-1.35133 -1.24322,-3.35129 0,-2.05402 1.24322,-3.3513 1.29728,-1.29727 3.24319,-1.29727 z"
       style="font-style:normal;font-variant:normal;font-weight:normal;font-stretch:normal;font-size:54.05310822px;line-height:1.25;font-family:'Montserrat Alternates';-inkscape-font-specification:'Montserrat Alternates';letter-spacing:0px;word-spacing:0px;fill:#000000;fill-opacity:1;stroke:#000000;stroke-width:1"
       id="path903"
       inkscape:connector-curvature="0" />
    <path
       d="m 200.19165,233.29326 v 40.10741 h -8.27013 v -4.2702 q -1.56754,2.27023 -3.89182,3.4594 -2.32429,1.13511 -5.29721,1.13511 -4.10803,0 -7.24311,-1.8378 -3.08103,-1.89186 -4.81073,-5.29721 -1.67565,-3.40534 -1.67565,-7.8377 0,-4.3783 1.67565,-7.72959 1.67565,-3.35129 4.75667,-5.1891 3.08103,-1.83781 7.08096,-1.83781 6.16206,0 9.40524,4.59452 v -15.29703 z m -15.51324,33.72914 q 3.18913,0 5.18909,-2.21618 2.05402,-2.27023 2.05402,-5.83773 0,-3.56751 -2.05402,-5.78369 -1.99996,-2.27023 -5.18909,-2.27023 -3.24319,0 -5.29721,2.27023 -1.99996,2.21618 -2.05402,5.78369 0.0541,3.5675 2.05402,5.83773 2.05402,2.21618 5.29721,2.21618 z"
       style="font-style:normal;font-variant:normal;font-weight:normal;font-stretch:normal;font-size:54.05310822px;line-height:1.25;font-family:'Montserrat Alternates';-inkscape-font-specification:'Montserrat Alternates';letter-spacing:0px;word-spacing:0px;fill:#000000;fill-opacity:1;stroke:#000000;stroke-width:1"
       id="path905"
       inkscape:connector-curvature="0" />
    <rect
       y="31.650297"
       x="25.966711"
       height="179.49083"
       width="247.55205"
       id="rect1283"
       style="opacity:1;fill:#000000;fill-opacity:1;stroke:#000000;stroke-width:3.2692914;stroke-miterlimit:4;stroke-dasharray:none;stroke-opacity:1" />
    <rect
       y="35.067814"
       x="29.077398"
       height="39.399525"
       width="25.766041"
       id="rect955"
       style="opacity:1;fill:#00aeef;fill-opacity:1;stroke:#00aeef;stroke-width:1.75748026;stroke-miterlimit:4;stroke-dasharray:none;stroke-opacity:1" />
    <rect
       style="opacity:1;fill:#68be5a;fill-opacity:1;stroke:#68be5a;stroke-width:1.75748026;stroke-miterlimit:4;stroke-dasharray:none;stroke-opacity:1"
       id="rect903"
       width="25.766041"
       height="39.399525"
       x="59.951694"
       y="35.067814" />
    <rect
       y="35.067814"
       x="90.702156"
       height="39.399525"
       width="25.766041"
       id="rect905"
       style="opacity:1;fill:#fff975;fill-opacity:1;stroke:#fff975;stroke-width:1.75748026;stroke-miterlimit:4;stroke-dasharray:none;stroke-opacity:1" />
    <rect
       style="opacity:1;fill:#e74a4a;fill-opacity:1;stroke:#e74a4a;stroke-width:1.75748026;stroke-miterlimit:4;stroke-dasharray:none;stroke-opacity:1"
       id="rect907"
       width="25.766041"
       height="39.399525"
       x="121.70152"
       y="35.067814" />
    <rect
       y="35.067814"
       x="152.57581"
       height="39.399525"
       width="25.766041"
       id="rect909"
       style="opacity:1;fill:#00aeef;fill-opacity:1;stroke:#00aeef;stroke-width:1.75748026;stroke-miterlimit:4;stroke-dasharray:none;stroke-opacity:1" />
    <rect
       style="opacity:1;fill:#68be5a;fill-opacity:1;stroke:#68be5a;stroke-width:1.75748026;stroke-miterlimit:4;stroke-dasharray:none;stroke-opacity:1"
       id="rect911"
       width="25.766041"
       height="39.399525"
       x="183.57642"
       y="35.067814" />
    <rect
       y="35.067814"
       x="214.3269"
       height="39.399525"
       width="25.766041"
       id="rect913"
       style="opacity:1;fill:#fff975;fill-opacity:1;stroke:#fff975;stroke-width:1.75748026;stroke-miterlimit:4;stroke-dasharray:none;stroke-opacity:1" />
    <rect
       style="opacity:1;fill:#e74a4a;fill-opacity:1;stroke:#e74a4a;stroke-width:1.75748026;stroke-miterlimit:4;stroke-dasharray:none;stroke-opacity:1"
       id="rect915"
       width="25.766041"
       height="39.399525"
       x="244.95227"
       y="35.067814" />
    <rect
       style="opacity:1;fill:#68be5a;fill-opacity:1;stroke:#68be5a;stroke-width:1.75748026;stroke-miterlimit:4;stroke-dasharray:none;stroke-opacity:1"
       id="rect917"
       width="25.766041"
       height="39.399525"
       x="29.077398"
       y="79.566902" />
    <rect
       y="79.566902"
       x="59.951694"
       height="39.399525"
       width="25.766041"
       id="rect919"
       style="opacity:1;fill:#e74a4a;fill-opacity:1;stroke:#e74a4a;stroke-width:1.75748026;stroke-miterlimit:4;stroke-dasharray:none;stroke-opacity:1" />
    <rect
       style="opacity:1;fill:#00aeef;fill-opacity:1;stroke:#00aeef;stroke-width:1.75748026;stroke-miterlimit:4;stroke-dasharray:none;stroke-opacity:1"
       id="rect921"
       width="25.766041"
       height="39.399525"
       x="90.575874"
       y="79.566902" />
    <rect
       y="79.566902"
       x="121.70033"
       height="39.399525"
       width="25.766041"
       id="rect924"
       style="opacity:1;fill:#fff975;fill-opacity:1;stroke:#fff975;stroke-width:1.75748026;stroke-miterlimit:4;stroke-dasharray:none;stroke-opacity:1" />
    <rect
       style="opacity:1;fill:#68be5a;fill-opacity:1;stroke:#68be5a;stroke-width:1.75748026;stroke-miterlimit:4;stroke-dasharray:none;stroke-opacity:1"
       id="rect926"
       width="25.766041"
       height="39.399525"
       x="152.44952"
       y="79.566902" />
    <rect
       y="79.566902"
       x="183.44891"
       height="39.399525"
       width="25.766041"
       id="rect928"
       style="opacity:1;fill:#e74a4a;fill-opacity:1;stroke:#e74a4a;stroke-width:1.75748026;stroke-miterlimit:4;stroke-dasharray:none;stroke-opacity:1" />
    <rect
       style="opacity:1;fill:#00aeef;fill-opacity:1;stroke:#00aeef;stroke-width:1.75748026;stroke-miterlimit:4;stroke-dasharray:none;stroke-opacity:1"
       id="rect930"
       width="25.766041"
       height="39.399525"
       x="214.44952"
       y="79.566902" />
    <rect
       y="79.566902"
       x="244.94983"
       height="39.399525"
       width="25.766041"
       id="rect932"
       style="opacity:1;fill:#fff975;fill-opacity:1;stroke:#fff975;stroke-width:1.75748026;stroke-miterlimit:4;stroke-dasharray:none;stroke-opacity:1" />
    <rect
       style="opacity:1;fill:#68be5a;fill-opacity:1;stroke:#68be5a;stroke-width:1.75748026;stroke-miterlimit:4;stroke-dasharray:none;stroke-opacity:1"
       id="rect934"
       width="25.766041"
       height="39.399525"
       x="244.94983"
       y="124.06721" />
    <rect
       y="124.06721"
       x="214.07431"
       height="39.399525"
       width="25.766041"
       id="rect936"
       style="opacity:1;fill:#e74a4a;fill-opacity:1;stroke:#e74a4a;stroke-width:1.75748026;stroke-miterlimit:4;stroke-dasharray:none;stroke-opacity:1" />
    <rect
       style="opacity:1;fill:#00aeef;fill-opacity:1;stroke:#00aeef;stroke-width:1.75748026;stroke-miterlimit:4;stroke-dasharray:none;stroke-opacity:1"
       id="rect938"
       width="25.766041"
       height="39.399525"
       x="183.45135"
       y="124.06721" />
    <rect
       y="124.06721"
       x="152.57706"
       height="39.399525"
       width="25.766041"
       id="rect940"
       style="opacity:1;fill:#fff975;fill-opacity:1;stroke:#fff975;stroke-width:1.75748026;stroke-miterlimit:4;stroke-dasharray:none;stroke-opacity:1" />
    <rect
       style="opacity:1;fill:#68be5a;fill-opacity:1;stroke:#68be5a;stroke-width:1.75748026;stroke-miterlimit:4;stroke-dasharray:none;stroke-opacity:1"
       id="rect942"
       width="25.766041"
       height="39.399525"
       x="121.57896"
       y="124.06721" />
    <rect
       y="124.06721"
       x="90.703438"
       height="39.399525"
       width="25.766041"
       id="rect944"
       style="opacity:1;fill:#e74a4a;fill-opacity:1;stroke:#e74a4a;stroke-width:1.75748026;stroke-miterlimit:4;stroke-dasharray:none;stroke-opacity:1" />
    <rect
       style="opacity:1;fill:#00aeef;fill-opacity:1;stroke:#00aeef;stroke-width:1.75748026;stroke-miterlimit:4;stroke-dasharray:none;stroke-opacity:1"
       id="rect946"
       width="25.766041"
       height="39.399525"
       x="59.952946"
       y="124.06721" />
    <rect
       y="124.06721"
       x="29.07868"
       height="39.399525"
       width="25.766041"
       id="rect948"
       style="opacity:1;fill:#fff975;fill-opacity:1;stroke:#fff975;stroke-width:1.75748026;stroke-miterlimit:4;stroke-dasharray:none;stroke-opacity:1" />
    <rect
       style="opacity:1;fill:#e74a4a;fill-opacity:1;stroke:#e74a4a;stroke-width:1.75748026;stroke-miterlimit:4;stroke-dasharray:none;stroke-opacity:1"
       id="rect950"
       width="25.766041"
       height="39.399525"
       x="29.07868"
       y="168.6926" />
    <rect
       y="168.6926"
       x="59.827885"
       height="39.399525"
       width="25.766041"
       id="rect952"
       style="opacity:1;fill:#fff975;fill-opacity:1;stroke:#fff975;stroke-width:1.75748026;stroke-miterlimit:4;stroke-dasharray:none;stroke-opacity:1" />
    <rect
       style="opacity:1;fill:#68be5a;fill-opacity:1;stroke:#68be5a;stroke-width:1.75748026;stroke-miterlimit:4;stroke-dasharray:none;stroke-opacity:1"
       id="rect954"
       width="25.766041"
       height="39.399525"
       x="90.702217"
       y="168.6926" />
    <rect
       y="168.6926"
       x="121.82667"
       height="39.399525"
       width="25.766041"
       id="rect956"
       style="opacity:1;fill:#00aeef;fill-opacity:1;stroke:#00aeef;stroke-width:1.75748026;stroke-miterlimit:4;stroke-dasharray:none;stroke-opacity:1" />
    <rect
       y="168.6926"
       x="152.57837"
       height="39.399525"
       width="25.766041"
       id="rect958"
       style="opacity:1;fill:#e74a4a;fill-opacity:1;stroke:#e74a4a;stroke-width:1.75748026;stroke-miterlimit:4;stroke-dasharray:none;stroke-opacity:1" />
    <rect
       style="opacity:1;fill:#fff975;fill-opacity:1;stroke:#fff975;stroke-width:1.75748026;stroke-miterlimit:4;stroke-dasharray:none;stroke-opacity:1"
       id="rect960"
       width="25.766041"
       height="39.399525"
       x="183.45389"
       y="168.6926" />
    <rect
       y="168.6926"
       x="214.08051"
       height="39.399525"
       width="25.766041"
       id="rect962"
       style="opacity:1;fill:#68be5a;fill-opacity:1;stroke:#68be5a;stroke-width:1.75748026;stroke-miterlimit:4;stroke-dasharray:none;stroke-opacity:1" />
    <rect
       style="opacity:1;fill:#00aeef;fill-opacity:1;stroke:#00aeef;stroke-width:1.75748026;stroke-miterlimit:4;stroke-dasharray:none;stroke-opacity:1"
       id="rect964"
       width="25.766041"
       height="39.399525"
       x="245.20618"
       y="168.6926" />
  </g>
</svg>
