<?xml version="1.0" encoding="UTF-8" standalone="no"?>
<!-- Created with Inkscape (http://www.inkscape.org/) -->

<svg
   xmlns:dc="http://purl.org/dc/elements/1.1/"
   xmlns:cc="http://creativecommons.org/ns#"
   xmlns:rdf="http://www.w3.org/1999/02/22-rdf-syntax-ns#"
   xmlns:svg="http://www.w3.org/2000/svg"
   xmlns="http://www.w3.org/2000/svg"
   xmlns:sodipodi="http://sodipodi.sourceforge.net/DTD/sodipodi-0.dtd"
   xmlns:inkscape="http://www.inkscape.org/namespaces/inkscape"
   version="1.1"
   id="svg815"
   width="300"
   height="300"
   viewBox="0 0 300 300"
   sodipodi:docname="show_nokeret.svg"
   inkscape:version="0.92.4 (5da689c313, 2019-01-14)">
  <metadata
     id="metadata821">
    <rdf:RDF>
      <cc:Work
         rdf:about="">
        <dc:format>image/svg+xml</dc:format>
        <dc:type
           rdf:resource="http://purl.org/dc/dcmitype/StillImage" />
        <dc:title></dc:title>
      </cc:Work>
    </rdf:RDF>
  </metadata>
  <defs
     id="defs819" />
  <sodipodi:namedview
     pagecolor="#ffffff"
     bordercolor="#666666"
     borderopacity="1"
     objecttolerance="10"
     gridtolerance="10"
     guidetolerance="10"
     inkscape:pageopacity="0"
     inkscape:pageshadow="2"
     inkscape:window-width="1920"
     inkscape:window-height="1017"
     id="namedview817"
     showgrid="false"
     inkscape:zoom="1.9987552"
     inkscape:cx="153.90228"
     inkscape:cy="152.57935"
     inkscape:window-x="-8"
     inkscape:window-y="-8"
     inkscape:window-maximized="1"
     inkscape:current-layer="svg815"
     showguides="true"
     inkscape:guide-bbox="true" />
  <g
     id="g2592"
     transform="matrix(0.99485516,0,0,0.99601244,0.00825202,1.1940035)">
    <rect
       style="opacity:0;stroke-width:3.10547709"
       y="1.3065853"
       x="1.7802999"
       height="298.12579"
       width="298.12579"
       id="rect3723" />
    <ellipse
       ry="10.565198"
       rx="10.689495"
       cy="106.46397"
       cx="66.72702"
       id="path4558"
       style="opacity:0;fill:#e74a4a;fill-opacity:1;stroke-width:8.00920105;stroke-miterlimit:4;stroke-dasharray:none" />
    <rect
       y="4.3971052"
       x="4.2662282"
       height="290.06342"
       width="290.99496"
       id="rect1603"
       style="opacity:1;fill:#d6d6d6;fill-opacity:1;stroke:#d6d6d6;stroke-width:5.36969948;stroke-miterlimit:4;stroke-dasharray:none;stroke-opacity:1" />
    <g
       transform="matrix(3.1054771,0,0,3.1054771,0.72560951,0.25189494)"
       id="text4534"
       style="font-style:normal;font-weight:normal;font-size:17.65237617px;line-height:1.25;font-family:sans-serif;letter-spacing:0px;word-spacing:0px;fill:#000000;fill-opacity:1;stroke:none;stroke-width:0.44130939"
       aria-label="show">
      <path
         id="path927"
         style="font-style:normal;font-variant:normal;font-weight:normal;font-stretch:normal;font-family:'Montserrat Alternates';-inkscape-font-specification:'Montserrat Alternates';stroke-width:0.44130939"
         d="m 31.753375,81.94615 q -0.776704,-0.44131 -1.535756,-0.670791 -0.759053,-0.247133 -1.359233,-0.247133 -0.494267,0 -0.794357,0.176524 -0.300091,0.176524 -0.300091,0.529571 0,0.388353 0.406005,0.600181 0.406005,0.211829 1.323928,0.476614 1.006186,0.300091 1.659324,0.600181 0.653138,0.282438 1.129752,0.864966 0.476614,0.564876 0.476614,1.500452 0,1.412191 -1.094447,2.206547 -1.076795,0.776705 -2.771424,0.776705 -1.165056,0 -2.241851,-0.335395 -1.076795,-0.353048 -1.871152,-0.988533 l 0.882619,-1.835847 q 0.723747,0.564876 1.606366,0.882618 0.900271,0.300091 1.694628,0.300091 0.547224,0 0.864966,-0.176524 0.335396,-0.194176 0.335396,-0.564876 0,-0.406005 -0.423657,-0.635485 -0.406005,-0.229481 -1.323929,-0.494267 -0.97088,-0.282438 -1.624018,-0.564876 -0.635486,-0.282438 -1.094448,-0.847314 -0.458961,-0.582529 -0.458961,-1.500452 0,-1.41219 1.059142,-2.188895 1.059143,-0.776704 2.683161,-0.776704 0.970881,0 1.941762,0.282438 0.97088,0.264785 1.765237,0.776704 z"
         inkscape:connector-curvature="0" />
      <path
         id="path929"
         style="font-style:normal;font-variant:normal;font-weight:normal;font-stretch:normal;font-family:'Montserrat Alternates';-inkscape-font-specification:'Montserrat Alternates';stroke-width:0.44130939"
         d="m 40.651001,79.05116 q 1.606366,0 2.541942,0.988533 0.953228,0.988533 0.953228,2.647857 v 5.966503 h -2.718466 v -5.172146 q 0,-0.900272 -0.511919,-1.412191 -0.494266,-0.529571 -1.359233,-0.529571 -1.006185,0.01765 -1.606366,0.706095 -0.582528,0.67079 -0.582528,1.729933 v 4.67788 H 34.649193 V 75.55599 h 2.718466 v 5.27806 q 0.988533,-1.747585 3.283342,-1.78289 z"
         inkscape:connector-curvature="0" />
      <path
         id="path931"
         style="font-style:normal;font-variant:normal;font-weight:normal;font-stretch:normal;font-family:'Montserrat Alternates';-inkscape-font-specification:'Montserrat Alternates';stroke-width:0.44130939"
         d="m 50.779603,79.068812 q 1.500452,0 2.647856,0.600181 1.165057,0.600181 1.800543,1.694628 0.635485,1.094448 0.635485,2.541943 0,1.429842 -0.635485,2.541942 -0.635486,1.094447 -1.800543,1.71228 -1.147404,0.600181 -2.647856,0.600181 -1.518104,0 -2.683161,-0.600181 -1.147405,-0.617833 -1.78289,-1.71228 -0.635486,-1.1121 -0.635486,-2.541942 0,-1.447495 0.635486,-2.541943 0.635485,-1.094447 1.78289,-1.694628 1.165057,-0.600181 2.683161,-0.600181 z m 0,2.259505 q -1.059143,0 -1.729933,0.723747 -0.653138,0.723747 -0.653138,1.888804 0,1.165057 0.653138,1.888805 0.67079,0.723747 1.729933,0.723747 1.04149,0 1.694628,-0.723747 0.67079,-0.723748 0.67079,-1.888805 0,-1.165057 -0.67079,-1.888804 -0.653138,-0.723747 -1.694628,-0.723747 z"
         inkscape:connector-curvature="0" />
      <path
         id="path933"
         style="font-style:normal;font-variant:normal;font-weight:normal;font-stretch:normal;font-family:'Montserrat Alternates';-inkscape-font-specification:'Montserrat Alternates';stroke-width:0.44130939"
         d="m 72.594631,84.611659 q 0,1.235666 -0.511919,2.188894 -0.494267,0.935576 -1.41219,1.465147 -0.900272,0.511919 -2.100633,0.511919 -1.094448,0 -2.100633,-0.529571 -0.988533,-0.547224 -1.4828,-1.41219 -0.476614,0.864966 -1.465147,1.41219 -0.988533,0.529571 -2.100633,0.529571 -1.200361,0 -2.118285,-0.511919 -0.917923,-0.529571 -1.429842,-1.465147 -0.511919,-0.953228 -0.511919,-2.188894 v -5.454585 h 2.700814 v 5.331018 q 0,0.812009 0.494266,1.323928 0.494267,0.494267 1.306276,0.494267 0.812009,0 1.288623,-0.494267 0.476614,-0.494266 0.476614,-1.323928 v -5.331018 h 2.683162 v 5.331018 q 0,0.812009 0.511919,1.323928 0.511918,0.494267 1.34158,0.494267 0.776705,0 1.253319,-0.494267 0.476614,-0.511919 0.476614,-1.323928 v -5.331018 h 2.700814 z"
         inkscape:connector-curvature="0" />
    </g>
    <g
       transform="matrix(3.1054771,0,0,3.1054771,0.3176495,1.2113476)"
       id="g886">
      <path
         style="opacity:1;fill:none;stroke:#000000;stroke-width:2.18834639;stroke-linecap:butt;stroke-linejoin:miter;stroke-miterlimit:4;stroke-dasharray:none;stroke-opacity:1"
         d="M 12.379648,6.3396226 V 65.427095"
         id="path4538"
         inkscape:connector-curvature="0" />
      <path
         inkscape:connector-curvature="0"
         id="path4540"
         d="M 89.314205,64.263597 H 11.254924"
         style="opacity:1;fill:none;stroke:#000000;stroke-width:2.19115686;stroke-linecap:butt;stroke-linejoin:miter;stroke-miterlimit:4;stroke-dasharray:none;stroke-opacity:1" />
      <path
         style="opacity:1;fill:none;stroke:#000000;stroke-width:2.28561234;stroke-linecap:butt;stroke-linejoin:miter;stroke-miterlimit:4;stroke-dasharray:none;stroke-opacity:1"
         d="m 12.390728,65.373017 v 3.66268"
         id="path4544"
         inkscape:connector-curvature="0" />
      <path
         inkscape:connector-curvature="0"
         id="path4550"
         d="M 11.253009,64.263598 H 7.7601365"
         style="opacity:1;fill:none;stroke:#000000;stroke-width:2.23200011;stroke-linecap:butt;stroke-linejoin:miter;stroke-miterlimit:4;stroke-dasharray:none;stroke-opacity:1" />
      <path
         style="opacity:1;fill:none;stroke:#000000;stroke-width:2.23200011;stroke-linecap:butt;stroke-linejoin:miter;stroke-miterlimit:4;stroke-dasharray:none;stroke-opacity:1"
         d="M 11.281311,45.704498 H 7.7884384"
         id="path4552"
         inkscape:connector-curvature="0" />
      <path
         inkscape:connector-curvature="0"
         id="path4554"
         d="M 11.281311,27.064098 H 7.7884384"
         style="opacity:1;fill:none;stroke:#000000;stroke-width:2.23200011;stroke-linecap:butt;stroke-linejoin:miter;stroke-miterlimit:4;stroke-dasharray:none;stroke-opacity:1" />
      <path
         style="opacity:1;fill:none;stroke:#000000;stroke-width:2.23200011;stroke-linecap:butt;stroke-linejoin:miter;stroke-miterlimit:4;stroke-dasharray:none;stroke-opacity:1"
         d="M 11.281311,8.4236996 H 7.7884384"
         id="path4556"
         inkscape:connector-curvature="0" />
      <path
         inkscape:connector-curvature="0"
         id="path867"
         d="m 31.069976,65.373017 v 3.66268"
         style="opacity:1;fill:none;stroke:#000000;stroke-width:2.28561234;stroke-linecap:butt;stroke-linejoin:miter;stroke-miterlimit:4;stroke-dasharray:none;stroke-opacity:1" />
      <path
         style="opacity:1;fill:none;stroke:#000000;stroke-width:2.28561234;stroke-linecap:butt;stroke-linejoin:miter;stroke-miterlimit:4;stroke-dasharray:none;stroke-opacity:1"
         d="m 49.664318,65.373017 v 3.66268"
         id="path869"
         inkscape:connector-curvature="0" />
      <path
         inkscape:connector-curvature="0"
         id="path871"
         d="m 68.286962,65.373017 v 3.66268"
         style="opacity:1;fill:none;stroke:#000000;stroke-width:2.28561234;stroke-linecap:butt;stroke-linejoin:miter;stroke-miterlimit:4;stroke-dasharray:none;stroke-opacity:1" />
      <path
         style="opacity:1;fill:none;stroke:#000000;stroke-width:2.28561234;stroke-linecap:butt;stroke-linejoin:miter;stroke-miterlimit:4;stroke-dasharray:none;stroke-opacity:1"
         d="m 86.815258,65.373017 v 3.66268"
         id="path873"
         inkscape:connector-curvature="0" />
    </g>
    <g
       transform="matrix(3.1054771,0,0,3.1054771,0.3176495,62.969325)"
       id="g1011">
      <path
         style="fill:none;stroke:#e74a4a;stroke-width:1.75748026;stroke-linecap:butt;stroke-linejoin:miter;stroke-miterlimit:4;stroke-dasharray:none;stroke-opacity:1"
         d="M 21.006212,14.38833 36.575903,0.61976 50.344473,7.46402 62.191847,-6.304549 79.40256,-1.061286 v 0"
         id="path916"
         inkscape:connector-curvature="0" />
      <g
         id="g992">
        <g
           transform="translate(-15.479676,-6.266473)"
           id="g867">
          <ellipse
             style="opacity:1;fill:#e74b4b;fill-opacity:1;stroke-width:2.37032557;stroke-miterlimit:4;stroke-dasharray:none"
             id="path4568"
             cx="36.764641"
             cy="20.442913"
             rx="3.4521487"
             ry="3.4921737" />
          <ellipse
             style="opacity:1;fill:#f08c8c;fill-opacity:1;stroke-width:2.60279584;stroke-miterlimit:4;stroke-dasharray:none"
             id="path4564"
             cx="36.757412"
             cy="20.38415"
             rx="1.7410836"
             ry="1.7811086" />
        </g>
        <g
           id="g873"
           transform="translate(0.12256597,-19.954993)">
          <ellipse
             ry="3.4921737"
             rx="3.4521487"
             cy="20.442913"
             cx="36.764641"
             id="ellipse869"
             style="opacity:1;fill:#e74b4b;fill-opacity:1;stroke-width:2.37032557;stroke-miterlimit:4;stroke-dasharray:none" />
          <ellipse
             ry="1.7811086"
             rx="1.7410836"
             cy="20.38415"
             cx="36.757412"
             id="ellipse871"
             style="opacity:1;fill:#f08c8c;fill-opacity:1;stroke-width:2.60279584;stroke-miterlimit:4;stroke-dasharray:none" />
        </g>
        <g
           transform="translate(13.803612,-13.150758)"
           id="g879">
          <ellipse
             style="opacity:1;fill:#e74b4b;fill-opacity:1;stroke-width:2.37032557;stroke-miterlimit:4;stroke-dasharray:none"
             id="ellipse875"
             cx="36.764641"
             cy="20.442913"
             rx="3.4521487"
             ry="3.4921737" />
          <ellipse
             style="opacity:1;fill:#f08c8c;fill-opacity:1;stroke-width:2.60279584;stroke-miterlimit:4;stroke-dasharray:none"
             id="ellipse877"
             cx="36.757412"
             cy="20.38415"
             rx="1.7410836"
             ry="1.7811086" />
        </g>
        <g
           id="g885"
           transform="translate(25.604733,-26.879303)">
          <ellipse
             ry="3.4921737"
             rx="3.4521487"
             cy="20.442913"
             cx="36.764641"
             id="ellipse881"
             style="opacity:1;fill:#e74b4b;fill-opacity:1;stroke-width:2.37032557;stroke-miterlimit:4;stroke-dasharray:none" />
          <ellipse
             ry="1.7811086"
             rx="1.7410836"
             cy="20.38415"
             cx="36.757412"
             id="ellipse883"
             style="opacity:1;fill:#f08c8c;fill-opacity:1;stroke-width:2.60279584;stroke-miterlimit:4;stroke-dasharray:none" />
        </g>
        <g
           transform="translate(43.005605,-21.636039)"
           id="g891">
          <ellipse
             style="opacity:1;fill:#e74b4b;fill-opacity:1;stroke-width:2.37032557;stroke-miterlimit:4;stroke-dasharray:none"
             id="ellipse887"
             cx="36.764641"
             cy="20.442913"
             rx="3.4521487"
             ry="3.4921737" />
          <ellipse
             style="opacity:1;fill:#f08c8c;fill-opacity:1;stroke-width:2.60279584;stroke-miterlimit:4;stroke-dasharray:none"
             id="ellipse889"
             cx="36.757412"
             cy="20.38415"
             rx="1.7410836"
             ry="1.7811086" />
        </g>
      </g>
    </g>
    <g
       transform="matrix(3.1054771,0,0,3.1054771,2.0754666,33.320813)"
       id="g1550">
      <path
         style="fill:none;stroke:#4789c6;stroke-width:1.75748026;stroke-linecap:butt;stroke-linejoin:miter;stroke-miterlimit:4;stroke-dasharray:none;stroke-opacity:1"
         d="m 19.980476,47.992087 15.529666,-13.84862 13.568446,7.00436 13.848619,-10.286403 15.449616,-3.482167"
         id="path937"
         inkscape:connector-curvature="0" />
      <g
         id="g1476"
         transform="translate(-12.962266,-8.3584916)">
        <ellipse
           style="opacity:1;fill:#4c8bc6;fill-opacity:1;stroke-width:2.37032557;stroke-miterlimit:4;stroke-dasharray:none"
           id="ellipse971"
           cx="33.655785"
           cy="55.767033"
           rx="3.4521487"
           ry="3.4921737" />
        <ellipse
           style="opacity:1;fill:#98ccfc;fill-opacity:1;stroke-width:2.60279584;stroke-miterlimit:4;stroke-dasharray:none"
           id="ellipse973"
           cx="33.648556"
           cy="55.708267"
           rx="1.7410836"
           ry="1.7811086" />
      </g>
      <g
         id="g1482"
         transform="translate(2.3773582,-21.83019)">
        <ellipse
           ry="3.4921737"
           rx="3.4521487"
           cy="55.767033"
           cx="33.655785"
           id="ellipse1478"
           style="opacity:1;fill:#4c8bc6;fill-opacity:1;stroke-width:2.37032557;stroke-miterlimit:4;stroke-dasharray:none" />
        <ellipse
           ry="1.7811086"
           rx="1.7410836"
           cy="55.708267"
           cx="33.648556"
           id="ellipse1480"
           style="opacity:1;fill:#98ccfc;fill-opacity:1;stroke-width:2.60279584;stroke-miterlimit:4;stroke-dasharray:none" />
      </g>
      <g
         transform="translate(16.603774,-14.811322)"
         id="g1488">
        <ellipse
           style="opacity:1;fill:#4c8bc6;fill-opacity:1;stroke-width:2.37032557;stroke-miterlimit:4;stroke-dasharray:none"
           id="ellipse1484"
           cx="33.655785"
           cy="55.767033"
           rx="3.4521487"
           ry="3.4921737" />
        <ellipse
           style="opacity:1;fill:#98ccfc;fill-opacity:1;stroke-width:2.60279584;stroke-miterlimit:4;stroke-dasharray:none"
           id="ellipse1486"
           cx="33.648556"
           cy="55.708267"
           rx="1.7410836"
           ry="1.7811086" />
      </g>
      <g
         id="g1494"
         transform="translate(30.339623,-25.339624)">
        <ellipse
           ry="3.4921737"
           rx="3.4521487"
           cy="55.767033"
           cx="33.655785"
           id="ellipse1490"
           style="opacity:1;fill:#4c8bc6;fill-opacity:1;stroke-width:2.37032557;stroke-miterlimit:4;stroke-dasharray:none" />
        <ellipse
           ry="1.7811086"
           rx="1.7410836"
           cy="55.708267"
           cx="33.648556"
           id="ellipse1492"
           style="opacity:1;fill:#98ccfc;fill-opacity:1;stroke-width:2.60279584;stroke-miterlimit:4;stroke-dasharray:none" />
      </g>
      <g
         transform="translate(45.622641,-28.452831)"
         id="g1500">
        <ellipse
           style="opacity:1;fill:#4c8bc6;fill-opacity:1;stroke-width:2.37032557;stroke-miterlimit:4;stroke-dasharray:none"
           id="ellipse1496"
           cx="33.655785"
           cy="55.767033"
           rx="3.4521487"
           ry="3.4921737" />
        <ellipse
           style="opacity:1;fill:#98ccfc;fill-opacity:1;stroke-width:2.60279584;stroke-miterlimit:4;stroke-dasharray:none"
           id="ellipse1498"
           cx="33.648556"
           cy="55.708267"
           rx="1.7410836"
           ry="1.7811086" />
      </g>
    </g>
  </g>
</svg>
