<?xml version="1.0" encoding="UTF-8" standalone="no"?>
<!-- Created with Inkscape (http://www.inkscape.org/) -->

<svg
   xmlns:dc="http://purl.org/dc/elements/1.1/"
   xmlns:cc="http://creativecommons.org/ns#"
   xmlns:rdf="http://www.w3.org/1999/02/22-rdf-syntax-ns#"
   xmlns:svg="http://www.w3.org/2000/svg"
   xmlns="http://www.w3.org/2000/svg"
   xmlns:sodipodi="http://sodipodi.sourceforge.net/DTD/sodipodi-0.dtd"
   xmlns:inkscape="http://www.inkscape.org/namespaces/inkscape"
   width="78.550125mm"
   height="78.550125mm"
   viewBox="0 0 78.550125 78.550125"
   version="1.1"
   id="svg8"
   inkscape:version="0.92.4 (5da689c313, 2019-01-14)"
   sodipodi:docname="site_nokeret.svg">
  <defs
     id="defs2">
    <inkscape:path-effect
       effect="spiro"
       id="path-effect4669"
       is_visible="true" />
    <clipPath
       clipPathUnits="userSpaceOnUse"
       id="clipPath4589">
      <path
         inkscape:connector-curvature="0"
         id="path4591"
         d="m -72.193452,-74.17262 3.401785,123.598215"
         style="fill:none;stroke:#000000;stroke-width:0.26458332px;stroke-linecap:butt;stroke-linejoin:miter;stroke-opacity:1" />
    </clipPath>
    <clipPath
       clipPathUnits="userSpaceOnUse"
       id="clipPath3280">
      <rect
         style="opacity:0.5;fill:#b07655;fill-opacity:1;stroke:#d6d6d6;stroke-width:0.86500001;stroke-miterlimit:4;stroke-dasharray:none;stroke-opacity:1"
         id="rect3282"
         width="56.129463"
         height="70.681549"
         x="15.985786"
         y="-30.848013" />
    </clipPath>
  </defs>
  <sodipodi:namedview
     id="base"
     pagecolor="#ffffff"
     bordercolor="#666666"
     borderopacity="1.0"
     inkscape:pageopacity="0.0"
     inkscape:pageshadow="2"
     inkscape:zoom="0.98994949"
     inkscape:cx="151.67298"
     inkscape:cy="135.72635"
     inkscape:document-units="mm"
     inkscape:current-layer="layer2"
     showgrid="false"
     inkscape:snap-center="true"
     inkscape:window-width="1920"
     inkscape:window-height="1017"
     inkscape:window-x="-8"
     inkscape:window-y="-8"
     inkscape:window-maximized="1"
     fit-margin-top="0"
     fit-margin-left="0"
     fit-margin-right="0"
     fit-margin-bottom="0" />
  <metadata
     id="metadata5">
    <rdf:RDF>
      <cc:Work
         rdf:about="">
        <dc:format>image/svg+xml</dc:format>
        <dc:type
           rdf:resource="http://purl.org/dc/dcmitype/StillImage" />
        <dc:title></dc:title>
      </cc:Work>
    </rdf:RDF>
  </metadata>
  <g
     inkscape:groupmode="layer"
     id="layer2"
     inkscape:label="makingNew"
     style="display:inline"
     transform="translate(-60.502786,-79.058781)">
    <g
       id="g3303"
       transform="translate(0,0.52916667)">
      <rect
         y="79.303391"
         x="61.042313"
         height="77.485123"
         width="77.485123"
         id="rect3284"
         style="opacity:1;fill:#d6d6d6;fill-opacity:1;stroke:#d6d6d6;stroke-width:0.86500001;stroke-miterlimit:4;stroke-dasharray:none;stroke-opacity:1" />
      <g
         clip-path="url(#clipPath3280)"
         style="font-style:normal;font-variant:normal;font-weight:600;font-stretch:normal;font-size:14.11111069px;line-height:1.25;font-family:'Montserrat Alternates';-inkscape-font-specification:'Montserrat Alternates, Semi-Bold';font-variant-ligatures:normal;font-variant-caps:normal;font-variant-numeric:normal;font-feature-settings:normal;text-align:start;letter-spacing:0px;word-spacing:0px;writing-mode:lr-tb;text-anchor:start;opacity:1;fill:#000000;fill-opacity:1;stroke:none;stroke-width:0.26458332"
         id="g3252"
         transform="translate(55.734355,113.55319)">
        <rect
           rx="4.1982203"
           style="display:inline;fill:#d6d6d6;fill-opacity:1;stroke:#7f7f7f;stroke-width:1.06500006;stroke-miterlimit:4;stroke-dasharray:none;stroke-opacity:1"
           id="rect3222"
           width="77.485123"
           height="77.485123"
           x="5.3079605"
           y="-34.249798"
           ry="4.0092268" />
        <g
           id="g3240"
           style="display:inline;stroke-width:1.20000005;stroke-miterlimit:4;stroke-dasharray:none"
           transform="translate(-61.433604,113.11985)">
          <g
             transform="translate(59.587616,-195.1824)"
             id="g3232"
             style="display:inline;stroke-width:1.20000005;stroke-miterlimit:4;stroke-dasharray:none">
            <path
               style="fill:#68be5a;fill-opacity:1;stroke:#000000;stroke-width:1.20000005;stroke-linecap:butt;stroke-linejoin:miter;stroke-miterlimit:4;stroke-dasharray:none;stroke-opacity:1"
               d="m 20.599701,103.09821 4.819198,-13.866998 10.662486,2.238521 0.467722,11.693037 z"
               id="path3224"
               inkscape:connector-curvature="0" />
            <path
               style="fill:#00aeef;fill-opacity:1;stroke:#000000;stroke-width:1.20000005;stroke-linecap:butt;stroke-linejoin:miter;stroke-miterlimit:4;stroke-dasharray:none;stroke-opacity:1"
               d="m 25.418899,89.23121 2.551337,-7.299656 7.710247,0.03341 0.400902,9.504773 z"
               id="path3226"
               inkscape:connector-curvature="0" />
            <path
               style="fill:#fff975;fill-opacity:1;stroke:#000000;stroke-width:1.20000005;stroke-linecap:butt;stroke-linejoin:miter;stroke-miterlimit:4;stroke-dasharray:none;stroke-opacity:1"
               d="m 35.680483,81.964963 0.400902,9.50477 33.074604,6.949006 -5.65599,-16.298196 z"
               id="path3228"
               inkscape:connector-curvature="0" />
            <path
               style="fill:#00aeef;fill-opacity:1;stroke:#000000;stroke-width:1.20000005;stroke-linecap:butt;stroke-linejoin:miter;stroke-miterlimit:4;stroke-dasharray:none;stroke-opacity:1"
               d="M 36.549107,103.16277 70.870534,103.2872 69.155989,98.418739 36.081385,91.469735 Z"
               id="path3230"
               inkscape:connector-curvature="0" />
          </g>
          <g
             transform="translate(27.809461,-120.8931)"
             id="g3238"
             style="display:inline;stroke-width:1.20000005;stroke-miterlimit:4;stroke-dasharray:none">
            <path
               style="display:inline;fill:#e74a4a;fill-opacity:1;stroke:#000000;stroke-width:1.20000005;stroke-miterlimit:4;stroke-dasharray:none;stroke-opacity:0.99456518"
               d="M 77.495083,-21.810703 A 13.863718,13.863718 0 0 0 63.63443,-8.0415171 h -0.02842 c 0.01164,0.3388617 0.03799,0.6777344 0.07131,1.0164754 a 13.863718,13.863718 0 0 0 0.74104,3.6354369 C 66.460124,3.289635 71.988286,9.9026398 77.354523,16.240721 82.565843,10.085616 88.085771,3.7300302 90.328409,-2.7276297 A 13.863718,13.863718 0 0 0 91.358321,-7.9469492 13.863718,13.863718 0 0 0 77.495083,-21.810703 Z"
               id="path3234"
               inkscape:connector-curvature="0" />
            <path
               inkscape:connector-curvature="0"
               id="path3236"
               d="m 82.901618,-8.2521289 a 5.4320224,5.4320224 0 0 0 -5.43201,-5.4320221 5.4320224,5.4320224 0 0 0 -5.43203,5.4320221 5.4320224,5.4320224 0 0 0 5.43203,5.432023 5.4320224,5.4320224 0 0 0 5.43201,-5.432023 z"
               inkscape:transform-center-y="0.20417889"
               inkscape:transform-center-x="-0.016890102"
               style="display:inline;fill:#ffffff;fill-opacity:1;stroke:#000000;stroke-width:1.20000005;stroke-miterlimit:4;stroke-dasharray:none;stroke-opacity:0.99456518" />
          </g>
        </g>
        <path
           d="m 38.442124,32.202975 q -0.620889,-0.352778 -1.227667,-0.536222 -0.606778,-0.197556 -1.086556,-0.197556 -0.395111,0 -0.634999,0.141111 -0.239889,0.141111 -0.239889,0.423334 0,0.310444 0.324555,0.479777 0.324556,0.169334 1.058333,0.381 0.804334,0.239889 1.326445,0.479778 0.522111,0.225778 0.903111,0.691445 0.381,0.451555 0.381,1.199444 0,1.128889 -0.874889,1.763889 -0.860778,0.620889 -2.215444,0.620889 -0.931334,0 -1.792111,-0.268111 -0.860778,-0.282223 -1.495778,-0.790223 l 0.705555,-1.467555 q 0.578556,0.451555 1.284112,0.705555 0.719666,0.239889 1.354666,0.239889 0.437445,0 0.691445,-0.141111 0.268111,-0.155222 0.268111,-0.451555 0,-0.324556 -0.338667,-0.508 -0.324556,-0.183445 -1.058333,-0.395111 -0.776111,-0.225778 -1.298222,-0.451556 -0.508,-0.225778 -0.874889,-0.677333 -0.366889,-0.465667 -0.366889,-1.199445 0,-1.128889 0.846666,-1.749777 0.846667,-0.620889 2.144889,-0.620889 0.776111,0 1.552222,0.225777 0.776112,0.211667 1.411112,0.620889 z"
           style="font-style:normal;font-variant:normal;font-weight:600;font-stretch:normal;font-size:14.11111069px;font-family:'Montserrat Alternates';-inkscape-font-specification:'Montserrat Alternates, Semi-Bold';font-variant-ligatures:normal;font-variant-caps:normal;font-variant-numeric:normal;font-feature-settings:normal;text-align:start;writing-mode:lr-tb;text-anchor:start;stroke-width:0.26458332"
           id="path3242"
           inkscape:connector-curvature="0" />
        <path
           d="m 40.686452,29.973419 h 2.173111 v 7.591778 h -2.173111 z m 1.072444,-3.372555 q 0.522111,0 0.846667,0.338667 0.338666,0.338666 0.338666,0.874889 0,0.536222 -0.338666,0.874888 -0.324556,0.338667 -0.846667,0.338667 -0.508,0 -0.846666,-0.338667 -0.324556,-0.352777 -0.324556,-0.874888 0,-0.536223 0.324556,-0.874889 0.338666,-0.338667 0.846666,-0.338667 z"
           style="font-style:normal;font-variant:normal;font-weight:600;font-stretch:normal;font-size:14.11111069px;font-family:'Montserrat Alternates';-inkscape-font-specification:'Montserrat Alternates, Semi-Bold';font-variant-ligatures:normal;font-variant-caps:normal;font-variant-numeric:normal;font-feature-settings:normal;text-align:start;writing-mode:lr-tb;text-anchor:start;stroke-width:0.26458332"
           id="path3244"
           inkscape:connector-curvature="0" />
        <path
           d="m 49.14937,37.141864 q -0.423333,0.239889 -0.931333,0.381 -0.508,0.141111 -1.001889,0.141111 -1.072444,0 -1.749777,-0.663222 -0.677334,-0.663223 -0.677334,-1.848556 v -6.928555 h 2.159 v 2.088444 h 2.074333 v 1.509889 h -2.074333 v 2.963333 q 0,0.522111 0.197556,0.790222 0.211666,0.254 0.578555,0.254 0.451556,0 0.973667,-0.282222 z"
           style="font-style:normal;font-variant:normal;font-weight:600;font-stretch:normal;font-size:14.11111069px;font-family:'Montserrat Alternates';-inkscape-font-specification:'Montserrat Alternates, Semi-Bold';font-variant-ligatures:normal;font-variant-caps:normal;font-variant-numeric:normal;font-feature-settings:normal;text-align:start;writing-mode:lr-tb;text-anchor:start;stroke-width:0.26458332"
           id="path3246"
           inkscape:connector-curvature="0" />
        <g
           id="g3250">
          <path
             inkscape:connector-curvature="0"
             id="path3248"
             style="font-style:normal;font-variant:normal;font-weight:600;font-stretch:normal;font-size:14.11111069px;font-family:'Montserrat Alternates';-inkscape-font-specification:'Montserrat Alternates, Semi-Bold';font-variant-ligatures:normal;font-variant-caps:normal;font-variant-numeric:normal;font-feature-settings:normal;text-align:start;writing-mode:lr-tb;text-anchor:start;stroke-width:0.26458332"
             d="m 53.957291,35.95653 q 0.550333,0 1.058333,-0.254 0.522111,-0.254 0.959555,-0.733777 l 1.241778,1.128888 q -1.312333,1.552223 -3.414889,1.552223 -1.199444,0 -2.116666,-0.479778 -0.903111,-0.493889 -1.411111,-1.368778 -0.508,-0.874889 -0.508,-2.017889 0,-1.143 0.479777,-2.017889 0.493889,-0.888999 1.382889,-1.368777 0.889,-0.493889 2.060222,-0.493889 1.636889,0 2.638778,0.945444 1.016,0.931334 1.072445,2.554111 l -5.249334,1.382889 q 0.239889,0.550334 0.705556,0.860778 0.479778,0.310444 1.100667,0.310444 z m -0.183445,-4.444999 q -0.818444,0 -1.298222,0.507999 -0.479778,0.508 -0.536222,1.467556 l 3.330222,-0.903111 q -0.352778,-1.072444 -1.495778,-1.072444 z" />
        </g>
      </g>
    </g>
  </g>
</svg>
