<?xml version="1.0" encoding="UTF-8" standalone="no"?>
<!-- Created with Inkscape (http://www.inkscape.org/) -->

<svg
   xmlns:dc="http://purl.org/dc/elements/1.1/"
   xmlns:cc="http://creativecommons.org/ns#"
   xmlns:rdf="http://www.w3.org/1999/02/22-rdf-syntax-ns#"
   xmlns:svg="http://www.w3.org/2000/svg"
   xmlns="http://www.w3.org/2000/svg"
   xmlns:sodipodi="http://sodipodi.sourceforge.net/DTD/sodipodi-0.dtd"
   xmlns:inkscape="http://www.inkscape.org/namespaces/inkscape"
   width="18.767841mm"
   height="43.920834mm"
   viewBox="0 0 18.767841 43.920834"
   version="1.1"
   id="svg2263"
   inkscape:version="0.92.4 (5da689c313, 2019-01-14)"
   sodipodi:docname="base_banner_button.svg">
  <defs
     id="defs2257">
    <clipPath
       id="clipPath4729"
       clipPathUnits="userSpaceOnUse">
      <path
         inkscape:connector-curvature="0"
         id="path4731"
         d="m 73.689467,119.06593 c -2.232216,0 -4.029179,1.88993 -4.029179,4.23709 V 166.498 c 0,2.34716 1.796963,4.2371 4.029179,4.2371 h 18.006311 c 0.131143,0 0.260718,-0.009 0.38857,-0.0208 v -51.62755 c -0.127852,-0.0127 -0.257427,-0.0209 -0.38857,-0.0209 z"
         style="opacity:0.34000017;fill:#000000;stroke:#000000;stroke-width:1.91134322;stroke-miterlimit:4;stroke-dasharray:none;stroke-opacity:1" />
    </clipPath>
  </defs>
  <sodipodi:namedview
     id="base"
     pagecolor="#ffffff"
     bordercolor="#666666"
     borderopacity="1.0"
     inkscape:pageopacity="0.0"
     inkscape:pageshadow="2"
     inkscape:zoom="1.4"
     inkscape:cx="-16.55837"
     inkscape:cy="-113.39301"
     inkscape:document-units="mm"
     inkscape:current-layer="layer1"
     showgrid="false"
     inkscape:window-width="1920"
     inkscape:window-height="1017"
     inkscape:window-x="-8"
     inkscape:window-y="-8"
     inkscape:window-maximized="1" />
  <metadata
     id="metadata2260">
    <rdf:RDF>
      <cc:Work
         rdf:about="">
        <dc:format>image/svg+xml</dc:format>
        <dc:type
           rdf:resource="http://purl.org/dc/dcmitype/StillImage" />
        <dc:title></dc:title>
      </cc:Work>
    </rdf:RDF>
  </metadata>
  <g
     inkscape:label="Layer 1"
     inkscape:groupmode="layer"
     id="layer1"
     transform="translate(-162.21727,-89.075298)">
    <g
       transform="translate(147.94141,-59.789298)"
       id="g1025">
      <g
         transform="translate(-99.589739,83.069819)"
         id="g4761">
        <rect
           style="opacity:1;fill:#000000;fill-opacity:1;stroke:#000000;stroke-width:0.26226729;stroke-opacity:1"
           id="rect4757"
           width="18.457003"
           height="43.658566"
           x="114.02128"
           y="65.925911" />
        <path
           inkscape:connector-curvature="0"
           id="path4759"
           d="m 78.112212,123.31655 c -1.90586,0 -3.4401,1.54773 -3.4401,3.4699 v 35.37379 c 0,1.92217 1.53424,3.4699 3.4401,3.4699 h 15.37374 c 0.11197,0 0.2226,-0.007 0.33176,-0.017 v -42.27952 c -0.10916,-0.0104 -0.21979,-0.0171 -0.33176,-0.0171 z"
           style="opacity:1;fill:#000000;stroke:#d0cece;stroke-width:1.59823358;stroke-miterlimit:4;stroke-dasharray:none;stroke-opacity:1"
           clip-path="url(#clipPath4729)"
           transform="matrix(1.0305572,0,0,1,37.73525,-56.722575)" />
      </g>
      <g
         id="text952"
         style="font-style:normal;font-variant:normal;font-weight:normal;font-stretch:normal;font-size:25.39999962px;line-height:1.25;font-family:'Montserrat Alternates';-inkscape-font-specification:'Montserrat Alternates';letter-spacing:0px;word-spacing:0px;fill:#d0cece;fill-opacity:1;stroke:none;stroke-width:0.26458332"
         transform="rotate(-90)"
         aria-label="base">
        <path
           inkscape:connector-curvature="0"
           id="path979"
           style="font-size:11.28888893px;fill:#d0cece;fill-opacity:1;stroke-width:0.26458332"
           d="m -180.30794,22.173333 q 0.84667,0 1.49013,0.395111 0.65476,0.383822 1.00472,1.095022 0.36124,0.7112 0.36124,1.636889 0,0.9144 -0.34996,1.614311 -0.34995,0.688623 -0.99342,1.072445 -0.63218,0.383822 -1.47884,0.383822 -0.63218,0 -1.12889,-0.237067 -0.48542,-0.248355 -0.82409,-0.7112 V 28.3032 h -1.73849 v -8.376356 h 1.73849 V 23.1216 q 0.32738,-0.462845 0.8128,-0.699911 0.49671,-0.248356 1.10631,-0.248356 z m -0.4064,4.752622 q 0.66605,0 1.08373,-0.462844 0.41769,-0.474133 0.41769,-1.2192 0,-0.733778 -0.41769,-1.196622 -0.41768,-0.474134 -1.08373,-0.474134 -0.66604,0 -1.09502,0.474134 -0.41769,0.462844 -0.41769,1.196622 0,0.756355 0.41769,1.2192 0.42898,0.462844 1.09502,0.462844 z" />
        <path
           inkscape:connector-curvature="0"
           id="path981"
           style="font-size:11.28888893px;fill:#d0cece;fill-opacity:1;stroke-width:0.26458332"
           d="M -170.32186,22.229778 V 28.3032 h -1.7272 v -0.869245 q -0.32738,0.451556 -0.8128,0.699911 -0.48542,0.237067 -1.09502,0.237067 -0.85796,0 -1.51271,-0.383822 -0.64347,-0.395111 -1.00471,-1.106311 -0.34996,-0.7112 -0.34996,-1.636889 0,-0.9144 0.34996,-1.603022 0.34995,-0.699911 0.98213,-1.083734 0.64347,-0.395111 1.47885,-0.395111 1.27564,0 1.96426,0.948267 v -0.880533 z m -3.22862,4.741333 q 0.6096,0 1.016,-0.4064 0.41769,-0.4064 0.48542,-1.072445 v -0.4064 q -0.0677,-0.666044 -0.48542,-1.072444 -0.4064,-0.4064 -1.016,-0.4064 -0.67733,0 -1.10631,0.474133 -0.41769,0.462845 -0.42898,1.207911 0.0113,0.745067 0.42898,1.2192 0.42898,0.462845 1.10631,0.462845 z" />
        <path
           inkscape:connector-curvature="0"
           id="path983"
           style="font-size:11.28888893px;fill:#d0cece;fill-opacity:1;stroke-width:0.26458332"
           d="m -164.80512,24.013422 q -0.49671,-0.282222 -0.98213,-0.428978 -0.48542,-0.158044 -0.86925,-0.158044 -0.31609,0 -0.508,0.112889 -0.19191,0.112889 -0.19191,0.338666 0,0.248356 0.25965,0.383823 0.25964,0.135466 0.84666,0.3048 0.64347,0.191911 1.06116,0.383822 0.41769,0.180622 0.72249,0.553155 0.3048,0.361245 0.3048,0.959556 0,0.903111 -0.69991,1.411111 -0.68863,0.496711 -1.77236,0.496711 -0.74507,0 -1.43369,-0.214489 -0.68862,-0.225778 -1.19662,-0.632178 l 0.56444,-1.174044 q 0.46285,0.361244 1.02729,0.564444 0.57574,0.191912 1.08374,0.191912 0.34995,0 0.55315,-0.112889 0.21449,-0.124178 0.21449,-0.361245 0,-0.259644 -0.27093,-0.4064 -0.25965,-0.146755 -0.84667,-0.316089 -0.62089,-0.180622 -1.03858,-0.361244 -0.4064,-0.180622 -0.69991,-0.541867 -0.29351,-0.372533 -0.29351,-0.959555 0,-0.903111 0.67733,-1.399823 0.67734,-0.496711 1.71592,-0.496711 0.62088,0 1.24177,0.180623 0.62089,0.169333 1.12889,0.496711 z" />
        <path
           inkscape:connector-curvature="0"
           id="path985"
           style="font-size:11.28888893px;fill:#d0cece;fill-opacity:1;stroke-width:0.26458332"
           d="m -160.17614,27.016266 q 0.44026,0 0.84666,-0.2032 0.41769,-0.2032 0.76765,-0.587022 l 0.99342,0.903111 q -1.04987,1.241778 -2.73191,1.241778 -0.95956,0 -1.69334,-0.383822 -0.72248,-0.395111 -1.12888,-1.095022 -0.4064,-0.699911 -0.4064,-1.614311 0,-0.9144 0.38382,-1.614312 0.39511,-0.7112 1.10631,-1.095022 0.7112,-0.395111 1.64818,-0.395111 1.30951,0 2.11102,0.756356 0.8128,0.745066 0.85795,2.043289 l -4.19946,1.106311 q 0.19191,0.440266 0.56444,0.688622 0.38382,0.248355 0.88054,0.248355 z m -0.14676,-3.556 q -0.65476,0 -1.03858,0.4064 -0.38382,0.4064 -0.42898,1.174045 l 2.66418,-0.722489 q -0.28222,-0.857956 -1.19662,-0.857956 z" />
      </g>
    </g>
  </g>
</svg>
