<?xml version="1.0" encoding="UTF-8" standalone="no"?>
<!-- Created with Inkscape (http://www.inkscape.org/) -->

<svg
   xmlns:dc="http://purl.org/dc/elements/1.1/"
   xmlns:cc="http://creativecommons.org/ns#"
   xmlns:rdf="http://www.w3.org/1999/02/22-rdf-syntax-ns#"
   xmlns:svg="http://www.w3.org/2000/svg"
   xmlns="http://www.w3.org/2000/svg"
   xmlns:sodipodi="http://sodipodi.sourceforge.net/DTD/sodipodi-0.dtd"
   xmlns:inkscape="http://www.inkscape.org/namespaces/inkscape"
   width="18.767841mm"
   height="43.920834mm"
   viewBox="0 0 18.767841 43.920834"
   version="1.1"
   id="svg2859"
   inkscape:version="0.92.4 (5da689c313, 2019-01-14)"
   sodipodi:docname="grid_banner_button.svg">
  <defs
     id="defs2853">
    <clipPath
       id="clipPath4729"
       clipPathUnits="userSpaceOnUse">
      <path
         inkscape:connector-curvature="0"
         id="path4731"
         d="m 73.689467,119.06593 c -2.232216,0 -4.029179,1.88993 -4.029179,4.23709 V 166.498 c 0,2.34716 1.796963,4.2371 4.029179,4.2371 h 18.006311 c 0.131143,0 0.260718,-0.009 0.38857,-0.0208 v -51.62755 c -0.127852,-0.0127 -0.257427,-0.0209 -0.38857,-0.0209 z"
         style="opacity:0.34000017;fill:#000000;stroke:#000000;stroke-width:1.91134322;stroke-miterlimit:4;stroke-dasharray:none;stroke-opacity:1" />
    </clipPath>
  </defs>
  <sodipodi:namedview
     id="base"
     pagecolor="#ffffff"
     bordercolor="#666666"
     borderopacity="1.0"
     inkscape:pageopacity="0.0"
     inkscape:pageshadow="2"
     inkscape:zoom="1.4"
     inkscape:cx="62.013675"
     inkscape:cy="-13.717739"
     inkscape:document-units="mm"
     inkscape:current-layer="layer1"
     showgrid="false"
     inkscape:window-width="1920"
     inkscape:window-height="1017"
     inkscape:window-x="-8"
     inkscape:window-y="-8"
     inkscape:window-maximized="1" />
  <metadata
     id="metadata2856">
    <rdf:RDF>
      <cc:Work
         rdf:about="">
        <dc:format>image/svg+xml</dc:format>
        <dc:type
           rdf:resource="http://purl.org/dc/dcmitype/StillImage" />
        <dc:title></dc:title>
      </cc:Work>
    </rdf:RDF>
  </metadata>
  <g
     inkscape:label="Layer 1"
     inkscape:groupmode="layer"
     id="layer1"
     transform="translate(-78.306556,-100.41458)">
    <g
       transform="translate(56.471174,4.0886783)"
       id="g1035">
      <g
         id="g4755"
         transform="translate(-92.030215,30.531128)">
        <rect
           y="65.925911"
           x="114.02128"
           height="43.658566"
           width="18.457003"
           id="rect4751"
           style="opacity:1;fill:#000000;fill-opacity:1;stroke:#000000;stroke-width:0.26226729;stroke-opacity:1" />
        <path
           transform="matrix(1.0305572,0,0,1,37.73525,-56.722575)"
           clip-path="url(#clipPath4729)"
           style="opacity:1;fill:#000000;stroke:#d0cece;stroke-width:1.59823358;stroke-miterlimit:4;stroke-dasharray:none;stroke-opacity:1"
           d="m 78.112212,123.31655 c -1.90586,0 -3.4401,1.54773 -3.4401,3.4699 v 35.37379 c 0,1.92217 1.53424,3.4699 3.4401,3.4699 h 15.37374 c 0.11197,0 0.2226,-0.007 0.33176,-0.017 v -42.27952 c -0.10916,-0.0104 -0.21979,-0.0171 -0.33176,-0.0171 z"
           id="path4753"
           inkscape:connector-curvature="0" />
      </g>
      <g
         id="text944"
         style="font-style:normal;font-variant:normal;font-weight:normal;font-stretch:normal;font-size:25.39999962px;line-height:1.25;font-family:'Montserrat Alternates';-inkscape-font-specification:'Montserrat Alternates';letter-spacing:0px;word-spacing:0px;fill:#d0cece;fill-opacity:1;stroke:none;stroke-width:0.26458332"
         transform="rotate(-90)"
         aria-label="grid">
        <path
           inkscape:connector-curvature="0"
           id="path970"
           style="font-size:11.28888893px;fill:#d0cece;fill-opacity:1;stroke-width:0.26458332"
           d="m -123.28561,29.205646 v 5.508978 q 0,0.857955 -0.4064,1.490133 -0.4064,0.643467 -1.14018,0.982133 -0.73378,0.349956 -1.69334,0.349956 -0.74506,0 -1.4224,-0.214489 -0.66604,-0.214489 -1.2192,-0.587022 l 0.64347,-1.2192 q 0.85796,0.6096 1.88525,0.6096 0.74506,0 1.18533,-0.372534 0.44027,-0.361244 0.44027,-0.982133 v -0.688622 q -0.3048,0.428978 -0.76765,0.654755 -0.46284,0.225778 -1.06115,0.225778 -0.77894,0 -1.38854,-0.361244 -0.59831,-0.372534 -0.93698,-1.038578 -0.32737,-0.666045 -0.32737,-1.535289 0,-0.857956 0.32737,-1.501422 0.33867,-0.654756 0.93698,-1.016 0.6096,-0.361245 1.38854,-0.361245 0.58702,0 1.04986,0.237067 0.46285,0.225778 0.77894,0.643467 v -0.824089 z m -3.1496,4.436533 q 0.63217,0 1.02728,-0.428978 0.39512,-0.440266 0.39512,-1.140177 0,-0.699912 -0.39512,-1.140178 -0.39511,-0.440267 -1.02728,-0.440267 -0.63218,0 -1.02729,0.440267 -0.39511,0.440266 -0.4064,1.140178 0.0113,0.699911 0.39511,1.140177 0.39511,0.428978 1.03858,0.428978 z" />
        <path
           inkscape:connector-curvature="0"
           id="path972"
           style="font-size:11.28888893px;fill:#d0cece;fill-opacity:1;stroke-width:0.26458332"
           d="m -119.96068,30.300668 q 0.31608,-0.564444 0.82408,-0.857956 0.508,-0.293511 1.18534,-0.3048 v 1.636889 q -0.0903,-0.01129 -0.27094,-0.01129 -0.80151,0 -1.27564,0.440267 -0.46284,0.428978 -0.46284,1.151467 v 2.923822 h -1.73849 v -6.073422 h 1.73849 z" />
        <path
           inkscape:connector-curvature="0"
           id="path974"
           style="font-size:11.28888893px;fill:#d0cece;fill-opacity:1;stroke-width:0.26458332"
           d="m -117.00282,29.205646 h 1.73849 v 6.073422 h -1.73849 z m 0.85796,-2.698045 q 0.41769,0 0.67733,0.270934 0.27093,0.270933 0.27093,0.699911 0,0.428978 -0.27093,0.699911 -0.25964,0.270933 -0.67733,0.270933 -0.4064,0 -0.67734,-0.270933 -0.25964,-0.282222 -0.25964,-0.699911 0,-0.428978 0.25964,-0.699911 0.27094,-0.270934 0.67734,-0.270934 z" />
        <path
           inkscape:connector-curvature="0"
           id="path976"
           style="font-size:11.28888893px;fill:#d0cece;fill-opacity:1;stroke-width:0.26458332"
           d="m -107.59088,26.902712 v 8.376356 h -1.7272 v -0.891822 q -0.32738,0.474133 -0.8128,0.722489 -0.48543,0.237066 -1.10632,0.237066 -0.85795,0 -1.51271,-0.383822 -0.64346,-0.395111 -1.00471,-1.106311 -0.34995,-0.7112 -0.34995,-1.636889 0,-0.9144 0.34995,-1.614311 0.34996,-0.699911 0.99342,-1.083733 0.64347,-0.383823 1.47885,-0.383823 1.28693,0 1.96427,0.959556 v -3.194756 z m -3.23992,7.044267 q 0.66605,0 1.08374,-0.462844 0.42898,-0.474134 0.42898,-1.2192 0,-0.745067 -0.42898,-1.207911 -0.41769,-0.474134 -1.08374,-0.474134 -0.67733,0 -1.10631,0.474134 -0.41769,0.462844 -0.42897,1.207911 0.0113,0.745066 0.42897,1.2192 0.42898,0.462844 1.10631,0.462844 z" />
      </g>
    </g>
  </g>
</svg>
