<?xml version="1.0" encoding="UTF-8" standalone="no"?>
<!-- Created with Inkscape (http://www.inkscape.org/) -->

<svg
   xmlns:dc="http://purl.org/dc/elements/1.1/"
   xmlns:cc="http://creativecommons.org/ns#"
   xmlns:rdf="http://www.w3.org/1999/02/22-rdf-syntax-ns#"
   xmlns:svg="http://www.w3.org/2000/svg"
   xmlns="http://www.w3.org/2000/svg"
   xmlns:sodipodi="http://sodipodi.sourceforge.net/DTD/sodipodi-0.dtd"
   xmlns:inkscape="http://www.inkscape.org/namespaces/inkscape"
   width="18.767841mm"
   height="43.920834mm"
   viewBox="0 0 18.767841 43.920834"
   version="1.1"
   id="svg3454"
   inkscape:version="0.92.4 (5da689c313, 2019-01-14)"
   sodipodi:docname="map_banner_button.svg">
  <defs
     id="defs3448">
    <clipPath
       id="clipPath4729"
       clipPathUnits="userSpaceOnUse">
      <path
         inkscape:connector-curvature="0"
         id="path4731"
         d="m 73.689467,119.06593 c -2.232216,0 -4.029179,1.88993 -4.029179,4.23709 V 166.498 c 0,2.34716 1.796963,4.2371 4.029179,4.2371 h 18.006311 c 0.131143,0 0.260718,-0.009 0.38857,-0.0208 v -51.62755 c -0.127852,-0.0127 -0.257427,-0.0209 -0.38857,-0.0209 z"
         style="opacity:0.34000017;fill:#000000;stroke:#000000;stroke-width:1.91134322;stroke-miterlimit:4;stroke-dasharray:none;stroke-opacity:1" />
    </clipPath>
  </defs>
  <sodipodi:namedview
     id="base"
     pagecolor="#ffffff"
     bordercolor="#666666"
     borderopacity="1.0"
     inkscape:pageopacity="0.0"
     inkscape:pageshadow="2"
     inkscape:zoom="2.8"
     inkscape:cx="34.972797"
     inkscape:cy="20.33189"
     inkscape:document-units="mm"
     inkscape:current-layer="layer1"
     showgrid="false"
     inkscape:window-width="1920"
     inkscape:window-height="1017"
     inkscape:window-x="-8"
     inkscape:window-y="-8"
     inkscape:window-maximized="1" />
  <metadata
     id="metadata3451">
    <rdf:RDF>
      <cc:Work
         rdf:about="">
        <dc:format>image/svg+xml</dc:format>
        <dc:type
           rdf:resource="http://purl.org/dc/dcmitype/StillImage" />
        <dc:title></dc:title>
      </cc:Work>
    </rdf:RDF>
  </metadata>
  <g
     inkscape:label="Layer 1"
     inkscape:groupmode="layer"
     id="layer1"
     transform="translate(-173.55656,-58.08125)">
    <g
       transform="translate(125.11914,-37.728558)"
       id="g1044">
      <g
         transform="translate(-65.428179,30.015031)"
         id="g4737">
        <rect
           style="opacity:1;fill:#000000;fill-opacity:1;stroke:#000000;stroke-width:0.26226729;stroke-opacity:1"
           id="rect4551"
           width="18.457003"
           height="43.658566"
           x="114.02128"
           y="65.925911" />
        <path
           inkscape:connector-curvature="0"
           id="path4647"
           d="m 78.112212,123.31655 c -1.90586,0 -3.4401,1.54773 -3.4401,3.4699 v 35.37379 c 0,1.92217 1.53424,3.4699 3.4401,3.4699 h 15.37374 c 0.11197,0 0.2226,-0.007 0.33176,-0.017 v -42.27952 c -0.10916,-0.0104 -0.21979,-0.0171 -0.33176,-0.0171 z"
           style="opacity:1;fill:#000000;stroke:#d0cece;stroke-width:1.59823358;stroke-miterlimit:4;stroke-dasharray:none;stroke-opacity:1"
           clip-path="url(#clipPath4729)"
           transform="matrix(1.0305572,0,0,1,37.73525,-56.722575)" />
      </g>
      <g
         id="text940"
         style="font-style:normal;font-variant:normal;font-weight:normal;font-stretch:normal;font-size:25.39999962px;line-height:1.25;font-family:'Montserrat Alternates';-inkscape-font-specification:'Montserrat Alternates';letter-spacing:0px;word-spacing:0px;fill:#d0cece;fill-opacity:1;stroke:none;stroke-width:0.26458332"
         transform="rotate(-90)"
         aria-label="map">
        <path
           inkscape:connector-curvature="0"
           id="path963"
           style="font-size:11.28888893px;fill:#d0cece;fill-opacity:1;stroke-width:0.26458332"
           d="m -122.56352,55.153705 q 1.00471,0 1.59174,0.632178 0.59831,0.620889 0.59831,1.693333 v 3.815645 h -1.7272 v -3.307645 q 0,-0.587022 -0.31609,-0.9144 -0.31609,-0.327377 -0.85796,-0.327377 -0.62089,0.01129 -0.98213,0.440266 -0.36125,0.428978 -0.36125,1.106311 v 3.002845 h -1.7272 v -3.307645 q 0,-0.575733 -0.31608,-0.903111 -0.3048,-0.338666 -0.84667,-0.338666 -0.62089,0.01129 -0.99342,0.440266 -0.36125,0.428978 -0.36125,1.106311 v 3.002845 h -1.73849 v -6.073422 h 1.73849 v 1.049866 q 0.63218,-1.095022 2.05458,-1.1176 0.76764,0 1.29822,0.372534 0.53058,0.361244 0.75636,1.027288 0.29351,-0.688622 0.84666,-1.038577 0.56445,-0.349956 1.34338,-0.361245 z" />
        <path
           inkscape:connector-curvature="0"
           id="path965"
           style="font-size:11.28888893px;fill:#d0cece;fill-opacity:1;stroke-width:0.26458332"
           d="m -112.88823,55.221439 v 6.073422 h -1.7272 v -0.869245 q -0.32738,0.451556 -0.8128,0.699912 -0.48543,0.237066 -1.09503,0.237066 -0.85795,0 -1.51271,-0.383822 -0.64346,-0.395111 -1.00471,-1.106311 -0.34995,-0.7112 -0.34995,-1.636889 0,-0.9144 0.34995,-1.603022 0.34996,-0.699911 0.98213,-1.083734 0.64347,-0.395111 1.47885,-0.395111 1.27564,0 1.96427,0.948267 v -0.880533 z m -3.22863,4.741333 q 0.6096,0 1.016,-0.4064 0.41769,-0.4064 0.48543,-1.072445 v -0.4064 q -0.0677,-0.666044 -0.48543,-1.072444 -0.4064,-0.4064 -1.016,-0.4064 -0.67733,0 -1.10631,0.474133 -0.41769,0.462845 -0.42898,1.207911 0.0113,0.745067 0.42898,1.2192 0.42898,0.462845 1.10631,0.462845 z" />
        <path
           inkscape:connector-curvature="0"
           id="path967"
           style="font-size:11.28888893px;fill:#d0cece;fill-opacity:1;stroke-width:0.26458332"
           d="m -107.48438,55.164994 q 0.84666,0 1.49013,0.395111 0.65476,0.383822 1.00471,1.095022 0.36125,0.7112 0.36125,1.636889 0,0.9144 -0.34996,1.614312 -0.34996,0.688622 -0.99342,1.072444 -0.63218,0.383822 -1.47885,0.383822 -0.63217,0 -1.12889,-0.237066 -0.48542,-0.248356 -0.82408,-0.7112 v 3.070577 h -1.73849 v -8.263466 h 1.73849 v 0.891822 q 0.32737,-0.462845 0.8128,-0.699911 0.49671,-0.248356 1.10631,-0.248356 z m -0.4064,4.752622 q 0.66604,0 1.08373,-0.462844 0.41769,-0.474133 0.41769,-1.2192 0,-0.733778 -0.41769,-1.196622 -0.41769,-0.474134 -1.08373,-0.474134 -0.66605,0 -1.09503,0.474134 -0.41768,0.462844 -0.41768,1.196622 0,0.756355 0.41768,1.2192 0.42898,0.462844 1.09503,0.462844 z" />
      </g>
    </g>
  </g>
</svg>
