<?xml version="1.0" encoding="UTF-8" standalone="no"?>
<!-- Created with Inkscape (http://www.inkscape.org/) -->

<svg
   xmlns:dc="http://purl.org/dc/elements/1.1/"
   xmlns:cc="http://creativecommons.org/ns#"
   xmlns:rdf="http://www.w3.org/1999/02/22-rdf-syntax-ns#"
   xmlns:svg="http://www.w3.org/2000/svg"
   xmlns="http://www.w3.org/2000/svg"
   xmlns:sodipodi="http://sodipodi.sourceforge.net/DTD/sodipodi-0.dtd"
   xmlns:inkscape="http://www.inkscape.org/namespaces/inkscape"
   width="18.767841mm"
   height="43.920834mm"
   viewBox="0 0 18.767841 43.920834"
   version="1.1"
   id="svg1071"
   inkscape:version="0.92.4 (5da689c313, 2019-01-14)"
   sodipodi:docname="show_banner_button.svg">
  <defs
     id="defs1065">
    <clipPath
       id="clipPath4729"
       clipPathUnits="userSpaceOnUse">
      <path
         inkscape:connector-curvature="0"
         id="path4731"
         d="m 73.689467,119.06593 c -2.232216,0 -4.029179,1.88993 -4.029179,4.23709 V 166.498 c 0,2.34716 1.796963,4.2371 4.029179,4.2371 h 18.006311 c 0.131143,0 0.260718,-0.009 0.38857,-0.0208 v -51.62755 c -0.127852,-0.0127 -0.257427,-0.0209 -0.38857,-0.0209 z"
         style="opacity:0.34000017;fill:#000000;stroke:#000000;stroke-width:1.91134322;stroke-miterlimit:4;stroke-dasharray:none;stroke-opacity:1" />
    </clipPath>
  </defs>
  <sodipodi:namedview
     id="base"
     pagecolor="#ffffff"
     bordercolor="#666666"
     borderopacity="1.0"
     inkscape:pageopacity="0.0"
     inkscape:pageshadow="2"
     inkscape:zoom="2.8"
     inkscape:cx="166.92357"
     inkscape:cy="48.726486"
     inkscape:document-units="mm"
     inkscape:current-layer="layer1"
     showgrid="false"
     inkscape:window-width="1920"
     inkscape:window-height="1017"
     inkscape:window-x="-8"
     inkscape:window-y="-8"
     inkscape:window-maximized="1" />
  <metadata
     id="metadata1068">
    <rdf:RDF>
      <cc:Work
         rdf:about="">
        <dc:format>image/svg+xml</dc:format>
        <dc:type
           rdf:resource="http://purl.org/dc/dcmitype/StillImage" />
        <dc:title />
      </cc:Work>
    </rdf:RDF>
  </metadata>
  <g
     inkscape:label="Layer 1"
     inkscape:groupmode="layer"
     id="layer1"
     transform="translate(-140.29465,-120.06935)">
    <g
       id="g961">
      <g
         id="g4743"
         transform="translate(26.429054,54.274568)">
        <rect
           y="65.925911"
           x="114.02128"
           height="43.658566"
           width="18.457003"
           id="rect4739"
           style="opacity:1;fill:#000000;fill-opacity:1;stroke:#000000;stroke-width:0.26226729;stroke-opacity:1" />
        <path
           transform="matrix(1.0305572,0,0,1,37.73525,-56.722575)"
           clip-path="url(#clipPath4729)"
           style="opacity:1;fill:#000000;stroke:#d0cece;stroke-width:1.59823358;stroke-miterlimit:4;stroke-dasharray:none;stroke-opacity:1"
           d="m 78.112212,123.31655 c -1.90586,0 -3.4401,1.54773 -3.4401,3.4699 v 35.37379 c 0,1.92217 1.53424,3.4699 3.4401,3.4699 h 15.37374 c 0.11197,0 0.2226,-0.007 0.33176,-0.017 v -42.27952 c -0.10916,-0.0104 -0.21979,-0.0171 -0.33176,-0.0171 z"
           id="path4741"
           inkscape:connector-curvature="0" />
      </g>
      <g
         id="text936"
         style="font-style:normal;font-variant:normal;font-weight:normal;font-stretch:normal;font-size:25.39999962px;line-height:1.25;font-family:'Montserrat Alternates';-inkscape-font-specification:'Montserrat Alternates';letter-spacing:0px;word-spacing:0px;fill:#d0cece;fill-opacity:1;stroke:none;stroke-width:0.26458332"
         transform="rotate(-90,20.074569,-47.357915)"
         aria-label="show">
        <g
           id="text857"
           style="font-style:normal;font-variant:normal;font-weight:normal;font-stretch:normal;font-size:14.11111069px;line-height:1.25;font-family:'Montserrat Alternates';-inkscape-font-specification:'Montserrat Alternates';letter-spacing:0px;word-spacing:0px;fill:#d0cece;fill-opacity:1;stroke:none;stroke-width:0.07000434"
           aria-label="plot">
          <path
             id="path943"
             style="font-style:normal;font-variant:normal;font-weight:normal;font-stretch:normal;font-size:11.28888893px;font-family:'Montserrat Alternates';-inkscape-font-specification:'Montserrat Alternates';fill:#d0cece;fill-opacity:1;stroke-width:0.07000434"
             d="m -176.97971,80.536294 q 0.84667,0 1.49014,0.395111 0.65475,0.383822 1.00471,1.095022 0.36124,0.7112 0.36124,1.636889 0,0.9144 -0.34995,1.614311 -0.34996,0.688622 -0.99343,1.072445 -0.63217,0.383822 -1.47884,0.383822 -0.63218,0 -1.12889,-0.237067 -0.48542,-0.248355 -0.82409,-0.7112 v 3.070578 h -1.73849 v -8.263467 h 1.73849 v 0.891823 q 0.32738,-0.462845 0.8128,-0.699912 0.49671,-0.248355 1.10631,-0.248355 z m -0.4064,4.752622 q 0.66605,0 1.08374,-0.462844 0.41769,-0.474134 0.41769,-1.2192 0,-0.733778 -0.41769,-1.196623 -0.41769,-0.474133 -1.08374,-0.474133 -0.66604,0 -1.09502,0.474133 -0.41769,0.462845 -0.41769,1.196623 0,0.756355 0.41769,1.2192 0.42898,0.462844 1.09502,0.462844 z" />
          <path
             id="path945"
             style="font-style:normal;font-variant:normal;font-weight:normal;font-stretch:normal;font-size:11.28888893px;font-family:'Montserrat Alternates';-inkscape-font-specification:'Montserrat Alternates';fill:#d0cece;fill-opacity:1;stroke-width:0.07000434"
             d="m -171.35114,84.543849 q 0,0.327378 0.14676,0.496712 0.14675,0.158044 0.39511,0.158044 0.22578,0 0.58702,-0.169333 l 0.16933,1.444977 q -0.57573,0.270934 -1.15146,0.270934 -0.8128,0 -1.34338,-0.530578 -0.53058,-0.541867 -0.53058,-1.557867 v -6.366933 h 1.7272 z" />
          <path
             id="path947"
             style="font-style:normal;font-variant:normal;font-weight:normal;font-stretch:normal;font-size:11.28888893px;font-family:'Montserrat Alternates';-inkscape-font-specification:'Montserrat Alternates';fill:#d0cece;fill-opacity:1;stroke-width:0.07000434"
             d="m -166.48527,80.536294 q 0.95955,0 1.69333,0.383822 0.74507,0.383822 1.15147,1.083733 0.4064,0.699912 0.4064,1.6256 0,0.9144 -0.4064,1.6256 -0.4064,0.699912 -1.15147,1.095023 -0.73378,0.383822 -1.69333,0.383822 -0.97085,0 -1.71591,-0.383822 -0.73378,-0.395111 -1.14018,-1.095023 -0.4064,-0.7112 -0.4064,-1.6256 0,-0.925688 0.4064,-1.6256 0.4064,-0.699911 1.14018,-1.083733 0.74506,-0.383822 1.71591,-0.383822 z m 0,1.444978 q -0.67734,0 -1.10631,0.462844 -0.41769,0.462845 -0.41769,1.207911 0,0.745067 0.41769,1.207911 0.42897,0.462845 1.10631,0.462845 0.66604,0 1.08373,-0.462845 0.42898,-0.462844 0.42898,-1.207911 0,-0.745066 -0.42898,-1.207911 -0.41769,-0.462844 -1.08373,-0.462844 z" />
          <path
             id="path949"
             style="font-style:normal;font-variant:normal;font-weight:normal;font-stretch:normal;font-size:11.28888893px;font-family:'Montserrat Alternates';-inkscape-font-specification:'Montserrat Alternates';fill:#d0cece;fill-opacity:1;stroke-width:0.07000434"
             d="m -158.73192,86.327494 q -0.33867,0.191911 -0.74507,0.3048 -0.4064,0.112889 -0.80151,0.112889 -0.85796,0 -1.39982,-0.530578 -0.54187,-0.530578 -0.54187,-1.478844 v -5.542845 h 1.7272 v 1.670756 h 1.65947 v 1.207911 h -1.65947 v 2.370666 q 0,0.417689 0.15804,0.632178 0.16934,0.2032 0.46285,0.2032 0.36124,0 0.77893,-0.225778 z" />
        </g>
      </g>
    </g>
  </g>
</svg>
