<?xml version="1.0" encoding="UTF-8" standalone="no"?>
<!-- Created with Inkscape (http://www.inkscape.org/) -->

<svg
   xmlns:dc="http://purl.org/dc/elements/1.1/"
   xmlns:cc="http://creativecommons.org/ns#"
   xmlns:rdf="http://www.w3.org/1999/02/22-rdf-syntax-ns#"
   xmlns:svg="http://www.w3.org/2000/svg"
   xmlns="http://www.w3.org/2000/svg"
   xmlns:sodipodi="http://sodipodi.sourceforge.net/DTD/sodipodi-0.dtd"
   xmlns:inkscape="http://www.inkscape.org/namespaces/inkscape"
   width="18.767841mm"
   height="43.920834mm"
   viewBox="0 0 18.767841 43.920834"
   version="1.1"
   id="svg1667"
   inkscape:version="0.92.4 (5da689c313, 2019-01-14)"
   sodipodi:docname="site_banner_button.svg">
  <defs
     id="defs1661">
    <clipPath
       id="clipPath4729"
       clipPathUnits="userSpaceOnUse">
      <path
         inkscape:connector-curvature="0"
         id="path4731"
         d="m 73.689467,119.06593 c -2.232216,0 -4.029179,1.88993 -4.029179,4.23709 V 166.498 c 0,2.34716 1.796963,4.2371 4.029179,4.2371 h 18.006311 c 0.131143,0 0.260718,-0.009 0.38857,-0.0208 v -51.62755 c -0.127852,-0.0127 -0.257427,-0.0209 -0.38857,-0.0209 z"
         style="opacity:0.34000017;fill:#000000;stroke:#000000;stroke-width:1.91134322;stroke-miterlimit:4;stroke-dasharray:none;stroke-opacity:1" />
    </clipPath>
  </defs>
  <sodipodi:namedview
     id="base"
     pagecolor="#ffffff"
     bordercolor="#666666"
     borderopacity="1.0"
     inkscape:pageopacity="0.0"
     inkscape:pageshadow="2"
     inkscape:zoom="1.979899"
     inkscape:cx="214.03654"
     inkscape:cy="98.771054"
     inkscape:document-units="mm"
     inkscape:current-layer="layer1"
     showgrid="false"
     inkscape:window-width="1920"
     inkscape:window-height="1017"
     inkscape:window-x="-8"
     inkscape:window-y="-8"
     inkscape:window-maximized="1" />
  <metadata
     id="metadata1664">
    <rdf:RDF>
      <cc:Work
         rdf:about="">
        <dc:format>image/svg+xml</dc:format>
        <dc:type
           rdf:resource="http://purl.org/dc/dcmitype/StillImage" />
        <dc:title></dc:title>
      </cc:Work>
    </rdf:RDF>
  </metadata>
  <g
     inkscape:label="Layer 1"
     inkscape:groupmode="layer"
     id="layer1"
     transform="translate(-95.69346,-157.86696)">
    <g
       transform="translate(55.904209,9.0023682)"
       id="g1015">
      <g
         transform="translate(-74.076346,83.069819)"
         id="g4749">
        <rect
           style="opacity:1;fill:#000000;fill-opacity:1;stroke:#000000;stroke-width:0.26226729;stroke-opacity:1"
           id="rect4745"
           width="18.457003"
           height="43.658566"
           x="114.02128"
           y="65.925911" />
        <path
           inkscape:connector-curvature="0"
           id="path4747"
           d="m 78.112212,123.31655 c -1.90586,0 -3.4401,1.54773 -3.4401,3.4699 v 35.37379 c 0,1.92217 1.53424,3.4699 3.4401,3.4699 h 15.37374 c 0.11197,0 0.2226,-0.007 0.33176,-0.017 v -42.27952 c -0.10916,-0.0104 -0.21979,-0.0171 -0.33176,-0.0171 z"
           style="opacity:1;fill:#000000;stroke:#d0cece;stroke-width:1.59823358;stroke-miterlimit:4;stroke-dasharray:none;stroke-opacity:1"
           clip-path="url(#clipPath4729)"
           transform="matrix(1.0305572,0,0,1,37.73525,-56.722575)" />
      </g>
      <g
         id="text948"
         style="font-style:normal;font-variant:normal;font-weight:normal;font-stretch:normal;font-size:25.39999962px;line-height:1.25;font-family:'Montserrat Alternates';-inkscape-font-specification:'Montserrat Alternates';letter-spacing:0px;word-spacing:0px;fill:#d0cece;fill-opacity:1;stroke:none;stroke-width:0.26458332"
         transform="rotate(-90)"
         aria-label="site">
        <path
           inkscape:connector-curvature="0"
           id="path988"
           style="font-size:11.28888893px;fill:#d0cece;fill-opacity:1;stroke-width:0.26458332"
           d="m -176.72593,49.976198 q -0.49671,-0.282222 -0.98214,-0.428978 -0.48542,-0.158044 -0.86924,-0.158044 -0.31609,0 -0.508,0.112889 -0.19191,0.112889 -0.19191,0.338666 0,0.248356 0.25964,0.383823 0.25965,0.135466 0.84667,0.3048 0.64347,0.191911 1.06115,0.383822 0.41769,0.180622 0.72249,0.553155 0.3048,0.361245 0.3048,0.959556 0,0.903111 -0.69991,1.411111 -0.68862,0.496711 -1.77235,0.496711 -0.74507,0 -1.43369,-0.214489 -0.68862,-0.225777 -1.19662,-0.632177 l 0.56444,-1.174045 q 0.46284,0.361245 1.02729,0.564445 0.57573,0.191911 1.08373,0.191911 0.34996,0 0.55316,-0.112889 0.21449,-0.124178 0.21449,-0.361245 0,-0.259644 -0.27094,-0.4064 -0.25964,-0.146755 -0.84666,-0.316089 -0.62089,-0.180622 -1.03858,-0.361244 -0.4064,-0.180622 -0.69991,-0.541867 -0.29351,-0.372533 -0.29351,-0.959555 0,-0.903111 0.67733,-1.399822 0.67733,-0.496712 1.71591,-0.496712 0.62089,0 1.24178,0.180623 0.62089,0.169333 1.12889,0.496711 z" />
        <path
           inkscape:connector-curvature="0"
           id="path990"
           style="font-size:11.28888893px;fill:#d0cece;fill-opacity:1;stroke-width:0.26458332"
           d="m -174.93047,48.192554 h 1.73849 v 6.073422 h -1.73849 z m 0.85795,-2.698045 q 0.41769,0 0.67734,0.270934 0.27093,0.270933 0.27093,0.699911 0,0.428977 -0.27093,0.699911 -0.25965,0.270933 -0.67734,0.270933 -0.4064,0 -0.67733,-0.270933 -0.25964,-0.282222 -0.25964,-0.699911 0,-0.428978 0.25964,-0.699911 0.27093,-0.270934 0.67733,-0.270934 z" />
        <path
           inkscape:connector-curvature="0"
           id="path992"
           style="font-size:11.28888893px;fill:#d0cece;fill-opacity:1;stroke-width:0.26458332"
           d="m -168.16014,53.927309 q -0.33866,0.191911 -0.74506,0.3048 -0.4064,0.112889 -0.80151,0.112889 -0.85796,0 -1.39983,-0.530578 -0.54186,-0.530577 -0.54186,-1.478844 v -5.542845 h 1.7272 v 1.670756 h 1.65946 v 1.207911 h -1.65946 v 2.370667 q 0,0.417689 0.15804,0.632178 0.16933,0.2032 0.46285,0.2032 0.36124,0 0.77893,-0.225778 z" />
        <path
           inkscape:connector-curvature="0"
           id="path994"
           style="font-size:11.28888893px;fill:#d0cece;fill-opacity:1;stroke-width:0.26458332"
           d="m -164.3138,52.979043 q 0.44027,0 0.84667,-0.2032 0.41769,-0.2032 0.76764,-0.587023 l 0.99342,0.903112 q -1.04986,1.241777 -2.73191,1.241777 -0.95955,0 -1.69333,-0.383822 -0.72249,-0.395111 -1.12889,-1.095022 -0.4064,-0.699911 -0.4064,-1.614311 0,-0.9144 0.38382,-1.614311 0.39511,-0.7112 1.10631,-1.095023 0.7112,-0.395111 1.64818,-0.395111 1.30951,0 2.11102,0.756356 0.8128,0.745066 0.85796,2.043289 l -4.19947,1.106311 q 0.19191,0.440267 0.56445,0.688622 0.38382,0.248356 0.88053,0.248356 z m -0.14676,-3.556 q -0.65475,0 -1.03857,0.4064 -0.38383,0.4064 -0.42898,1.174044 l 2.66418,-0.722489 q -0.28223,-0.857955 -1.19663,-0.857955 z" />
      </g>
    </g>
  </g>
</svg>
