<?xml version="1.0" encoding="UTF-8" standalone="no"?>
<!-- Created with Inkscape (http://www.inkscape.org/) -->

<svg
   xmlns:dc="http://purl.org/dc/elements/1.1/"
   xmlns:cc="http://creativecommons.org/ns#"
   xmlns:rdf="http://www.w3.org/1999/02/22-rdf-syntax-ns#"
   xmlns:svg="http://www.w3.org/2000/svg"
   xmlns="http://www.w3.org/2000/svg"
   xmlns:sodipodi="http://sodipodi.sourceforge.net/DTD/sodipodi-0.dtd"
   xmlns:inkscape="http://www.inkscape.org/namespaces/inkscape"
   version="1.1"
   id="svg10"
   width="196.74248"
   height="771.74249"
   viewBox="0 0 196.74248 771.74249"
   sodipodi:docname="Show_banner.svg"
   inkscape:version="0.92.4 (5da689c313, 2019-01-14)">
  <metadata
     id="metadata16">
    <rdf:RDF>
      <cc:Work
         rdf:about="">
        <dc:format>image/svg+xml</dc:format>
        <dc:type
           rdf:resource="http://purl.org/dc/dcmitype/StillImage" />
        <dc:title></dc:title>
      </cc:Work>
    </rdf:RDF>
  </metadata>
  <defs
     id="defs14" />
  <sodipodi:namedview
     pagecolor="#ffffff"
     bordercolor="#666666"
     borderopacity="1"
     objecttolerance="10"
     gridtolerance="10"
     guidetolerance="10"
     inkscape:pageopacity="0"
     inkscape:pageshadow="2"
     inkscape:window-width="1920"
     inkscape:window-height="1017"
     id="namedview12"
     showgrid="false"
     inkscape:zoom="0.78076374"
     inkscape:cx="-472.84295"
     inkscape:cy="432.72414"
     inkscape:window-x="-8"
     inkscape:window-y="-8"
     inkscape:window-maximized="1"
     inkscape:current-layer="svg10" />
  <g
     id="g956">
    <rect
       y="1.8712378"
       x="1.8712361"
       height="768"
       width="193"
       id="rect20"
       style="opacity:1;fill:#000000;fill-opacity:1;stroke:#000000;stroke-width:3.74247646;stroke-miterlimit:4;stroke-dasharray:none;stroke-opacity:1" />
    <path
       inkscape:connector-curvature="0"
       id="path2"
       style="fill:#ae6946;fill-rule:evenodd;stroke-width:0.76277202"
       d="M 97.46648,78.539777 H 49.82771 l 21.62062,21.620693 c 28.72988,28.72982 29.46276,28.72982 58.19257,0 l 3.88441,-3.884412 C 125.17021,85.50236 112.12452,78.539777 97.46648,78.539777 Z" />
    <path
       inkscape:connector-curvature="0"
       id="path4"
       style="fill:#61c44b;fill-rule:evenodd;stroke-width:0.76277202"
       d="m 96.2045,71.064077 h 1.94225 c 16.7102,0 31.66144,7.768833 41.37237,19.861745 L 154.14055,76.34101 c 2.93163,-2.931638 2.93163,-7.658841 0,-10.59048 l -7.80537,-7.842059 -18.13941,0.03661 c -12.45935,0 -23.74609,5.020413 -31.99127,13.118993 z" />
    <path
       inkscape:connector-curvature="0"
       id="path6"
       style="fill:#00adef;fill-rule:evenodd;stroke-width:0.76277202"
       d="m 138.82286,50.432847 -8.5017,-8.501705 c -28.72981,-28.729885 -29.46268,-28.729885 -58.19257,0 L 48.3092,65.75053 c -1.42913,1.502509 -2.19869,3.408066 -2.19869,5.313547 h 40.12654 c 9.71093,-12.53265 24.9187,-20.594617 41.95872,-20.594617 z" />
    <path
       inkscape:connector-curvature="0"
       id="path8"
       style="fill:#94d67a;fill-rule:evenodd;stroke-width:0.76277202"
       d="m 139.62911,72.566585 c -0.80625,0 -1.46582,-0.659645 -1.46582,-1.502508 0,-0.806174 0.65957,-1.502432 1.46582,-1.502432 0.84279,0 1.50244,0.696258 1.50244,1.502432 0,0.842863 -0.65965,1.502508 -1.50244,1.502508 z m -22.9766,-4.250852 c -0.84278,0 -1.50243,-0.696259 -1.50243,-1.502432 0,-0.842863 0.65965,-1.502509 1.50243,-1.502509 0.80625,0 1.50251,0.659646 1.50251,1.502509 0,0.806173 -0.69626,1.502432 -1.50251,1.502432 z m 22.9766,-0.219907 c -1.64903,0 -2.96832,1.319214 -2.96832,2.968251 0,0.439814 0.0733,0.80625 0.2199,1.172686 l -2.08877,2.088775 c -4.65398,-3.371377 -9.74762,-5.973192 -15.17116,-7.732144 -0.10991,-1.539122 -1.39251,-2.785034 -2.96825,-2.785034 -1.64903,0 -3.00486,1.355904 -3.00486,3.004941 0,1.649037 1.35583,3.004864 3.00486,3.004864 0.91617,0 1.72234,-0.439738 2.27199,-1.099383 5.49685,1.795641 10.62717,4.470759 15.31776,7.988664 0.18322,0.146605 0.43974,0.219907 0.65957,0.219907 0.29321,0 0.58635,-0.109915 0.80618,-0.329823 l 2.78503,-2.785033 c 0.32982,0.183218 0.73295,0.25652 1.13607,0.25652 1.68565,0 3.00487,-1.355903 3.00487,-3.00494 0,-1.649037 -1.31922,-2.968251 -3.00487,-2.968251 z" />
    <path
       inkscape:connector-curvature="0"
       id="path10"
       style="fill:#94d67a;fill-rule:evenodd;stroke-width:0.76277202"
       d="m 140.28868,81.58133 c -0.84286,0 -1.50243,-0.659645 -1.50243,-1.465819 0,-0.842863 0.65957,-1.502508 1.50243,-1.502508 0.80618,0 1.50243,0.659645 1.50243,1.502508 0,0.806174 -0.69625,1.465819 -1.50243,1.465819 z M 130.21124,66.630007 c -0.80617,0 -1.50243,-0.659569 -1.50243,-1.465743 0,-0.842863 0.69626,-1.502509 1.50243,-1.502509 0.84287,0 1.50244,0.659646 1.50244,1.502509 0,0.806174 -0.65957,1.465743 -1.50244,1.465743 z m 18.24932,0.916165 -3.18815,-3.188158 c -0.21984,-0.219831 -0.51297,-0.329823 -0.80618,-0.329823 h -11.46995 c -0.47635,-1.099307 -1.53905,-1.868868 -2.78504,-1.868868 -1.64903,0 -3.00486,1.319215 -3.00486,3.004941 0,1.649037 1.35583,2.968251 3.00486,2.968251 1.24599,0 2.3453,-0.769561 2.78504,-1.868944 h 10.9936 l 2.89495,2.895025 c 0.76956,0.732871 0.76956,1.978783 0,2.748344 l -5.42346,5.423538 c -0.36651,-0.146605 -0.76956,-0.219907 -1.17269,-0.219907 -1.64903,0 -3.00486,1.319214 -3.00486,3.00494 0,1.649037 1.35583,2.968251 3.00486,2.968251 1.64904,0 2.96825,-1.319214 2.96825,-2.968251 0,-0.439738 -0.0733,-0.842863 -0.21983,-1.172685 l 5.42346,-5.460152 c 1.64904,-1.612347 1.64904,-4.287465 0,-5.936502 z" />
    <g
       aria-label="Agro"
       transform="rotate(-90,-144.12877,146)"
       style="font-style:normal;font-variant:normal;font-weight:normal;font-stretch:normal;font-size:69.05522156px;line-height:1.25;font-family:'Montserrat Alternates';-inkscape-font-specification:'Montserrat Alternates';letter-spacing:0px;word-spacing:0px;fill:#00aaea;fill-opacity:1;stroke:none;stroke-width:1.72638059"
       id="text1000">
      <path
         inkscape:connector-curvature="0"
         d="m -740.0205,345.89341 q 0,-6.28402 2.62409,-10.97978 2.6241,-4.69575 7.45797,-7.25079 4.90292,-2.55505 11.46316,-2.55505 6.62931,0 11.53223,2.55505 4.90292,2.55504 7.52702,7.25079 2.69315,4.69576 2.69315,10.97978 v 28.31264 h -10.91073 V 362.2595 h -21.47617 v 11.94655 h -10.91072 z m 32.38689,0 q 0,-5.17914 -2.90032,-8.21757 -2.90031,-3.03843 -7.87229,-3.03843 -4.97198,0 -7.8723,3.03843 -2.83126,3.03843 -2.83126,8.21757 v 7.59608 h 21.47617 z"
         style="fill:#00aaea;fill-opacity:1;stroke-width:1.72638059"
         id="path1056" />
      <path
         inkscape:connector-curvature="0"
         d="m -652.26427,337.05435 v 33.69894 q 0,5.2482 -2.48598,9.11529 -2.48599,3.93615 -6.97458,6.00781 -4.48859,2.14071 -10.35829,2.14071 -4.55764,0 -8.70095,-1.31205 -4.07426,-1.31205 -7.45797,-3.59087 l 3.93615,-7.45797 q 5.2482,3.72899 11.53222,3.72899 4.55765,0 7.2508,-2.27883 2.69315,-2.20976 2.69315,-6.0078 v -4.21237 q -1.86449,2.6241 -4.69575,4.0052 -2.83126,1.38111 -6.49119,1.38111 -4.76481,0 -8.49379,-2.20977 -3.65993,-2.27882 -5.73159,-6.35308 -2.0026,-4.07426 -2.0026,-9.39151 0,-5.2482 2.0026,-9.18434 2.07166,-4.00521 5.73159,-6.21497 3.72898,-2.20977 8.49379,-2.20977 3.59087,0 6.42213,1.45016 2.83127,1.3811 4.76481,3.93615 v -5.04103 z m -19.2664,27.1387 q 3.86709,0 6.28402,-2.6241 2.41693,-2.69315 2.41693,-6.97458 0,-4.28142 -2.41693,-6.97458 -2.41693,-2.69315 -6.28402,-2.69315 -3.8671,0 -6.28403,2.69315 -2.41693,2.69316 -2.48599,6.97458 0.0691,4.28143 2.41694,6.97458 2.41693,2.6241 6.35308,2.6241 z"
         style="fill:#00aaea;fill-opacity:1;stroke-width:1.72638059"
         id="path1058" />
      <path
         inkscape:connector-curvature="0"
         d="m -631.92535,343.7527 q 1.93355,-3.45276 5.04103,-5.24819 3.10749,-1.79544 7.2508,-1.8645 v 10.01301 q -0.55244,-0.0691 -1.65732,-0.0691 -4.90292,0 -7.80324,2.69315 -2.83127,2.6241 -2.83127,7.04363 v 17.8853 h -10.6345 v -37.1517 h 10.6345 z"
         style="fill:#00aaea;fill-opacity:1;stroke-width:1.72638059"
         id="path1060" />
      <path
         inkscape:connector-curvature="0"
         d="m -597.05138,336.70907 q 5.86969,0 10.35828,2.34788 4.55765,2.34787 7.04363,6.6293 2.48599,4.28142 2.48599,9.94395 0,5.59347 -2.48599,9.94395 -2.48598,4.28143 -7.04363,6.69836 -4.48859,2.34788 -10.35828,2.34788 -5.93875,0 -10.4964,-2.34788 -4.48858,-2.41693 -6.97457,-6.69836 -2.48599,-4.35048 -2.48599,-9.94395 0,-5.66253 2.48599,-9.94395 2.48599,-4.28143 6.97457,-6.6293 4.55765,-2.34788 10.4964,-2.34788 z m 0,8.83907 q -4.14331,0 -6.76741,2.83126 -2.55505,2.83127 -2.55505,7.38891 0,4.55765 2.55505,7.38891 2.6241,2.83126 6.76741,2.83126 4.07426,0 6.6293,-2.83126 2.6241,-2.83126 2.6241,-7.38891 0,-4.55764 -2.6241,-7.38891 -2.55504,-2.83126 -6.6293,-2.83126 z"
         style="fill:#00aaea;fill-opacity:1;stroke-width:1.72638059"
         id="path1062" />
    </g>
    <g
       aria-label="Mo"
       transform="rotate(-90,-144.12877,146)"
       style="font-style:normal;font-variant:normal;font-weight:normal;font-stretch:normal;font-size:68.43565369px;line-height:1.25;font-family:'Montserrat Alternates';-inkscape-font-specification:'Montserrat Alternates';letter-spacing:0px;word-spacing:0px;fill:#68be5a;fill-opacity:1;stroke:none;stroke-width:1.71089149"
       id="text1005">
      <path
         inkscape:connector-curvature="0"
         d="m -514.11778,325.10617 q 4.58519,0 8.14384,2.18994 3.55866,2.18994 5.54329,6.22764 1.98463,3.96927 1.98463,9.17038 v 31.06979 h -10.9497 v -28.46924 q 0,-4.51675 -2.46368,-7.25418 -2.39525,-2.73742 -6.43296,-2.73742 -3.01116,0 -5.40641,1.57402 -2.32681,1.57402 -3.69553,4.31144 -1.30028,2.669 -1.30028,6.02234 v 26.55304 h -10.9497 v -28.46924 q 0,-4.44831 -2.46368,-7.18574 -2.46369,-2.80586 -6.43295,-2.80586 -3.01117,0 -5.40642,1.57402 -2.32681,1.57402 -3.69553,4.31144 -1.30027,2.669 -1.30027,6.02234 v 26.55304 h -10.81284 v -48.24714 h 10.81284 v 7.25418 q 2.39524,-3.62709 6.1592,-5.61172 3.76397,-2.05307 8.48603,-2.05307 4.9958,0 8.75976,2.66899 3.76396,2.66899 5.54329,7.32261 2.25837,-4.72206 6.36451,-7.32261 4.10614,-2.66899 9.51256,-2.66899 z"
         style="fill:#68be5a;fill-opacity:1;stroke-width:1.71089149"
         id="path1065" />
      <path
         inkscape:connector-curvature="0"
         d="m -472.3314,336.60336 q 5.81704,0 10.26535,2.32681 4.51676,2.32681 6.98044,6.56982 2.46368,4.24301 2.46368,9.85474 0,5.54328 -2.46368,9.85473 -2.46368,4.24301 -6.98044,6.63826 -4.44831,2.32681 -10.26535,2.32681 -5.88546,0 -10.40221,-2.32681 -4.44832,-2.39525 -6.91201,-6.63826 -2.46368,-4.31145 -2.46368,-9.85473 0,-5.61173 2.46368,-9.85474 2.46369,-4.24301 6.91201,-6.56982 4.51675,-2.32681 10.40221,-2.32681 z m 0,8.75976 q -4.10613,0 -6.70669,2.80586 -2.53212,2.80586 -2.53212,7.32262 0,4.51675 2.53212,7.32261 2.60056,2.80586 6.70669,2.80586 4.03771,0 6.56983,-2.80586 2.60055,-2.80586 2.60055,-7.32261 0,-4.51676 -2.60055,-7.32262 -2.53212,-2.80586 -6.56983,-2.80586 z"
         style="fill:#68be5a;fill-opacity:1;stroke-width:1.71089149"
         id="path1067" />
    </g>
    <g
       aria-label="1.0"
       transform="rotate(-90,-144.12877,146)"
       style="font-style:normal;font-variant:normal;font-weight:normal;font-stretch:normal;font-size:68.44254303px;line-height:1.25;font-family:'Montserrat Alternates';-inkscape-font-specification:'Montserrat Alternates';letter-spacing:0px;word-spacing:0px;fill:#b07655;fill-opacity:1;stroke:none;stroke-width:1.71106362"
       id="text1009">
      <path
         inkscape:connector-curvature="0"
         d="m -436.18262,325.40315 h 20.46432 v 47.90978 h -10.81392 v -38.73848 h -9.6504 z"
         style="fill:#b07655;fill-opacity:1;stroke-width:1.71106362"
         id="path1070" />
      <path
         inkscape:connector-curvature="0"
         d="m -400.8267,363.04655 q 2.32705,0 3.76434,1.50573 1.50574,1.50574 1.50574,3.90123 0,2.39549 -1.50574,3.96966 -1.43729,1.50574 -3.76434,1.50574 -2.2586,0 -3.76434,-1.57418 -1.50573,-1.57418 -1.50573,-3.90122 0,-2.39549 1.50573,-3.90123 1.50574,-1.50573 3.76434,-1.50573 z"
         style="fill:#b07655;fill-opacity:1;stroke-width:1.71106362"
         id="path1072" />
      <path
         inkscape:connector-curvature="0"
         d="m -368.56459,324.99249 q 10.06105,0 15.46801,6.29672 5.40696,6.29671 5.40696,18.06883 0,11.70367 -5.40696,18.06883 -5.40696,6.29671 -15.46801,6.29671 -10.1295,0 -15.6049,-6.29671 -5.40697,-6.36516 -5.40697,-18.06883 0,-11.77212 5.40697,-18.06883 5.4754,-6.29672 15.6049,-6.29672 z m 0,8.28155 q -5.1332,0 -7.52868,3.83278 -2.39549,3.83278 -2.39549,12.25122 0,8.34999 2.39549,12.25121 2.39548,3.83278 7.52868,3.83278 4.9963,0 7.39179,-3.83278 2.39549,-3.90122 2.39549,-12.25121 0,-8.41844 -2.39549,-12.25122 -2.39549,-3.83278 -7.39179,-3.83278 z"
         style="fill:#b07655;fill-opacity:1;stroke-width:1.71106362"
         id="path1074" />
    </g>
    <path
       d="m 63.198052,148.49259 q 4,0 7.04,1.86667 3.093333,1.81333 4.746667,5.17333 1.706666,3.36 1.706666,7.73333 0,4.32 -1.653333,7.62667 -1.653333,3.25333 -4.693333,5.06667 -2.986667,1.81333 -6.986667,1.81333 -2.986666,0 -5.333333,-1.12 -2.293333,-1.17333 -3.893333,-3.36 v 14.50667 h -8.213333 v -39.04 h 8.213333 v 4.21333 q 1.546667,-2.18667 3.84,-3.30667 2.346666,-1.17333 5.226666,-1.17333 z m -1.92,22.45333 q 3.146667,0 5.12,-2.18666 1.973334,-2.24 1.973334,-5.76 0,-3.46667 -1.973334,-5.65334 -1.973333,-2.24 -5.12,-2.24 -3.146666,0 -5.173333,2.24 -1.973333,2.18667 -1.973333,5.65334 0,3.57333 1.973333,5.76 2.026667,2.18666 5.173333,2.18666 z"
       style="font-style:normal;font-variant:normal;font-weight:normal;font-stretch:normal;font-size:53.33333206px;line-height:1.25;font-family:'Montserrat Alternates';-inkscape-font-specification:'Montserrat Alternates';letter-spacing:0px;word-spacing:0px;fill:#b07655;fill-opacity:1;stroke:none"
       id="path904"
       inkscape:connector-curvature="0" />
    <path
       d="m 89.789718,167.42592 q 0,1.54667 0.693333,2.34667 0.693334,0.74667 1.866667,0.74667 1.066667,0 2.773333,-0.8 l 0.8,6.82666 q -2.72,1.28 -5.44,1.28 -3.84,0 -6.346666,-2.50666 -2.506667,-2.56 -2.506667,-7.36 v -30.08 h 8.16 z"
       style="font-style:normal;font-variant:normal;font-weight:normal;font-stretch:normal;font-size:53.33333206px;line-height:1.25;font-family:'Montserrat Alternates';-inkscape-font-specification:'Montserrat Alternates';letter-spacing:0px;word-spacing:0px;fill:#b07655;fill-opacity:1;stroke:none"
       id="path906"
       inkscape:connector-curvature="0" />
    <path
       d="m 112.77805,148.49259 q 4.53333,0 8,1.81333 3.52,1.81334 5.44,5.12 1.92,3.30667 1.92,7.68 0,4.32 -1.92,7.68 -1.92,3.30667 -5.44,5.17334 -3.46667,1.81333 -8,1.81333 -4.58667,0 -8.10667,-1.81333 -3.46666,-1.86667 -5.386663,-5.17334 -1.92,-3.36 -1.92,-7.68 0,-4.37333 1.92,-7.68 1.920003,-3.30666 5.386663,-5.12 3.52,-1.81333 8.10667,-1.81333 z m 0,6.82667 q -3.2,0 -5.22667,2.18666 -1.97333,2.18667 -1.97333,5.70667 0,3.52 1.97333,5.70667 2.02667,2.18666 5.22667,2.18666 3.14667,0 5.12,-2.18666 2.02667,-2.18667 2.02667,-5.70667 0,-3.52 -2.02667,-5.70667 -1.97333,-2.18666 -5.12,-2.18666 z"
       style="font-style:normal;font-variant:normal;font-weight:normal;font-stretch:normal;font-size:53.33333206px;line-height:1.25;font-family:'Montserrat Alternates';-inkscape-font-specification:'Montserrat Alternates';letter-spacing:0px;word-spacing:0px;fill:#b07655;fill-opacity:1;stroke:none"
       id="path908"
       inkscape:connector-curvature="0" />
    <path
       d="m 149.40805,175.85259 q -1.6,0.90667 -3.52,1.44 -1.92,0.53333 -3.78667,0.53333 -4.05333,0 -6.61333,-2.50666 -2.56,-2.50667 -2.56,-6.98667 v -26.18666 h 8.16 v 7.89333 h 7.84 v 5.70666 h -7.84 v 11.2 q 0,1.97334 0.74667,2.98667 0.8,0.96 2.18666,0.96 1.70667,0 3.68,-1.06667 z"
       style="font-style:normal;font-variant:normal;font-weight:normal;font-stretch:normal;font-size:53.33333206px;line-height:1.25;font-family:'Montserrat Alternates';-inkscape-font-specification:'Montserrat Alternates';letter-spacing:0px;word-spacing:0px;fill:#b07655;fill-opacity:1;stroke:none"
       id="path910"
       inkscape:connector-curvature="0" />
  </g>
</svg>
