<?xml version="1.0" encoding="UTF-8" standalone="no"?>
<!-- Created with Inkscape (http://www.inkscape.org/) -->

<svg
   xmlns:dc="http://purl.org/dc/elements/1.1/"
   xmlns:cc="http://creativecommons.org/ns#"
   xmlns:rdf="http://www.w3.org/1999/02/22-rdf-syntax-ns#"
   xmlns:svg="http://www.w3.org/2000/svg"
   xmlns="http://www.w3.org/2000/svg"
   xmlns:sodipodi="http://sodipodi.sourceforge.net/DTD/sodipodi-0.dtd"
   xmlns:inkscape="http://www.inkscape.org/namespaces/inkscape"
   width="52.054779mm"
   height="204.1902mm"
   viewBox="0 0 52.054779 204.1902"
   version="1.1"
   id="svg8"
   inkscape:version="0.92.4 (5da689c313, 2019-01-14)"
   sodipodi:docname="plot.svg">
  <defs
     id="defs2" />
  <sodipodi:namedview
     id="base"
     pagecolor="#ffffff"
     bordercolor="#666666"
     borderopacity="1.0"
     inkscape:pageopacity="0.0"
     inkscape:pageshadow="2"
     inkscape:zoom="0.7"
     inkscape:cx="-227.49876"
     inkscape:cy="293.47882"
     inkscape:document-units="mm"
     inkscape:current-layer="layer1"
     showgrid="false"
     showguides="true"
     inkscape:guide-bbox="true"
     inkscape:window-width="1920"
     inkscape:window-height="1017"
     inkscape:window-x="-8"
     inkscape:window-y="-8"
     inkscape:window-maximized="1">
    <sodipodi:guide
       position="-111.17797,-24.904903"
       orientation="1,0"
       id="guide1165"
       inkscape:locked="false" />
    <sodipodi:guide
       position="154.16131,-48.339426"
       orientation="1,0"
       id="guide1167"
       inkscape:locked="false" />
  </sodipodi:namedview>
  <metadata
     id="metadata5">
    <rdf:RDF>
      <cc:Work
         rdf:about="">
        <dc:format>image/svg+xml</dc:format>
        <dc:type
           rdf:resource="http://purl.org/dc/dcmitype/StillImage" />
        <dc:title></dc:title>
      </cc:Work>
    </rdf:RDF>
  </metadata>
  <g
     inkscape:label="Layer 1"
     inkscape:groupmode="layer"
     id="layer1"
     transform="translate(-69.978565,-42.202522)">
    <rect
       y="42.69762"
       x="70.473663"
       height="203.2"
       width="51.064583"
       id="rect20"
       style="opacity:1;fill:#000000;fill-opacity:1;stroke:#000000;stroke-width:0.99019688;stroke-miterlimit:4;stroke-dasharray:none;stroke-opacity:1" />
    <path
       inkscape:connector-curvature="0"
       id="path2"
       style="fill:#ae6946;fill-rule:evenodd;stroke-width:0.20181677"
       d="M 95.76657,62.982838 H 83.162145 l 5.720456,5.720475 c 7.601447,7.601431 7.795355,7.601431 15.396789,0 l 1.02775,-1.027751 c -2.21063,-2.850541 -5.662297,-4.692724 -9.54057,-4.692724 z" />
    <path
       inkscape:connector-curvature="0"
       id="path4"
       style="fill:#61c44b;fill-rule:evenodd;stroke-width:0.20181677"
       d="m 95.432671,61.004892 h 0.513887 c 4.421242,0 8.377092,2.055504 10.946442,5.255087 l 3.86858,-3.858898 c 0.77566,-0.775663 0.77566,-2.026402 0,-2.802065 l -2.06517,-2.074878 -4.79938,0.0097 c -3.29654,0 -6.282822,1.328318 -8.464359,3.471067 z" />
    <path
       inkscape:connector-curvature="0"
       id="path6"
       style="fill:#00adef;fill-rule:evenodd;stroke-width:0.20181677"
       d="m 106.70878,55.546213 -2.24941,-2.24941 c -7.601428,-7.601448 -7.795334,-7.601448 -15.396783,0 l -6.302214,6.302213 c -0.378124,0.397539 -0.581737,0.901718 -0.581737,1.405876 H 92.79545 C 95.3648,57.688962 99.388522,55.5559 103.89703,55.5559 Z" />
    <path
       inkscape:connector-curvature="0"
       id="path8"
       style="fill:#94d67a;fill-rule:evenodd;stroke-width:0.20181677"
       d="m 106.9221,61.402431 c -0.21332,0 -0.38783,-0.174531 -0.38783,-0.397539 0,-0.2133 0.17451,-0.397518 0.38783,-0.397518 0.22299,0 0.39752,0.184218 0.39752,0.397518 0,0.223008 -0.17453,0.397539 -0.39752,0.397539 z m -6.07923,-1.124705 c -0.22298,0 -0.39751,-0.184218 -0.39751,-0.397518 0,-0.223008 0.17453,-0.397539 0.39751,-0.397539 0.21332,0 0.39754,0.174531 0.39754,0.397539 0,0.2133 -0.18422,0.397518 -0.39754,0.397518 z m 6.07923,-0.05818 c -0.43631,0 -0.78537,0.349042 -0.78537,0.78535 0,0.116368 0.0194,0.21332 0.0582,0.310273 l -0.55265,0.552655 c -1.23137,-0.89201 -2.57906,-1.580407 -4.01404,-2.045796 -0.0291,-0.407226 -0.36843,-0.736874 -0.78535,-0.736874 -0.4363,0 -0.79503,0.35875 -0.79503,0.795058 0,0.436307 0.35873,0.795037 0.79503,0.795037 0.24241,0 0.45571,-0.116348 0.60113,-0.290879 1.45438,0.475097 2.81178,1.182888 4.05283,2.113667 0.0485,0.03879 0.11635,0.05818 0.17451,0.05818 0.0776,0 0.15514,-0.02908 0.2133,-0.08726 l 0.73687,-0.736874 c 0.0873,0.04848 0.19393,0.06787 0.30059,0.06787 0.44599,0 0.79504,-0.358749 0.79504,-0.795057 0,-0.436308 -0.34905,-0.78535 -0.79504,-0.78535 z" />
    <path
       inkscape:connector-curvature="0"
       id="path10"
       style="fill:#94d67a;fill-rule:evenodd;stroke-width:0.20181677"
       d="m 107.09661,63.787582 c -0.22301,0 -0.39752,-0.174531 -0.39752,-0.387831 0,-0.223008 0.17451,-0.397539 0.39752,-0.397539 0.2133,0 0.39752,0.174531 0.39752,0.397539 0,0.2133 -0.18422,0.387831 -0.39752,0.387831 z m -2.66632,-3.955871 c -0.2133,0 -0.39752,-0.174511 -0.39752,-0.387811 0,-0.223008 0.18422,-0.397539 0.39752,-0.397539 0.22301,0 0.39752,0.174531 0.39752,0.397539 0,0.2133 -0.17451,0.387811 -0.39752,0.387811 z m 4.82846,0.242402 -0.84353,-0.843533 c -0.0582,-0.05816 -0.13572,-0.08727 -0.2133,-0.08727 h -3.03476 c -0.12603,-0.290858 -0.4072,-0.494471 -0.73687,-0.494471 -0.43631,0 -0.79504,0.349042 -0.79504,0.795057 0,0.436308 0.35873,0.78535 0.79504,0.78535 0.32967,0 0.62052,-0.203613 0.73687,-0.494492 h 2.90873 l 0.76595,0.765976 c 0.20361,0.193905 0.20361,0.523553 0,0.727166 l -1.43496,1.434977 c -0.097,-0.03879 -0.20361,-0.05818 -0.31027,-0.05818 -0.43631,0 -0.79504,0.349042 -0.79504,0.795057 0,0.436307 0.35873,0.785349 0.79504,0.785349 0.43631,0 0.78535,-0.349042 0.78535,-0.785349 0,-0.116348 -0.0194,-0.223008 -0.0582,-0.310273 l 1.43495,-1.444665 c 0.43631,-0.426601 0.43631,-1.134392 0,-1.5707 z" />
    <g
       aria-label="Agro"
       transform="matrix(0,-0.26458333,0.26458333,0,3.2694949,42.697618)"
       style="font-style:normal;font-variant:normal;font-weight:normal;font-stretch:normal;font-size:69.05522156px;line-height:1.25;font-family:'Montserrat Alternates';-inkscape-font-specification:'Montserrat Alternates';letter-spacing:0px;word-spacing:0px;fill:#00aaea;fill-opacity:1;stroke:none;stroke-width:1.72638059"
       id="text1000">
      <path
         inkscape:connector-curvature="0"
         d="m -740.0205,345.89341 q 0,-6.28402 2.62409,-10.97978 2.6241,-4.69575 7.45797,-7.25079 4.90292,-2.55505 11.46316,-2.55505 6.62931,0 11.53223,2.55505 4.90292,2.55504 7.52702,7.25079 2.69315,4.69576 2.69315,10.97978 v 28.31264 h -10.91073 V 362.2595 h -21.47617 v 11.94655 h -10.91072 z m 32.38689,0 q 0,-5.17914 -2.90032,-8.21757 -2.90031,-3.03843 -7.87229,-3.03843 -4.97198,0 -7.8723,3.03843 -2.83126,3.03843 -2.83126,8.21757 v 7.59608 h 21.47617 z"
         style="fill:#00aaea;fill-opacity:1;stroke-width:1.72638059"
         id="path1056" />
      <path
         inkscape:connector-curvature="0"
         d="m -652.26427,337.05435 v 33.69894 q 0,5.2482 -2.48598,9.11529 -2.48599,3.93615 -6.97458,6.00781 -4.48859,2.14071 -10.35829,2.14071 -4.55764,0 -8.70095,-1.31205 -4.07426,-1.31205 -7.45797,-3.59087 l 3.93615,-7.45797 q 5.2482,3.72899 11.53222,3.72899 4.55765,0 7.2508,-2.27883 2.69315,-2.20976 2.69315,-6.0078 v -4.21237 q -1.86449,2.6241 -4.69575,4.0052 -2.83126,1.38111 -6.49119,1.38111 -4.76481,0 -8.49379,-2.20977 -3.65993,-2.27882 -5.73159,-6.35308 -2.0026,-4.07426 -2.0026,-9.39151 0,-5.2482 2.0026,-9.18434 2.07166,-4.00521 5.73159,-6.21497 3.72898,-2.20977 8.49379,-2.20977 3.59087,0 6.42213,1.45016 2.83127,1.3811 4.76481,3.93615 v -5.04103 z m -19.2664,27.1387 q 3.86709,0 6.28402,-2.6241 2.41693,-2.69315 2.41693,-6.97458 0,-4.28142 -2.41693,-6.97458 -2.41693,-2.69315 -6.28402,-2.69315 -3.8671,0 -6.28403,2.69315 -2.41693,2.69316 -2.48599,6.97458 0.0691,4.28143 2.41694,6.97458 2.41693,2.6241 6.35308,2.6241 z"
         style="fill:#00aaea;fill-opacity:1;stroke-width:1.72638059"
         id="path1058" />
      <path
         inkscape:connector-curvature="0"
         d="m -631.92535,343.7527 q 1.93355,-3.45276 5.04103,-5.24819 3.10749,-1.79544 7.2508,-1.8645 v 10.01301 q -0.55244,-0.0691 -1.65732,-0.0691 -4.90292,0 -7.80324,2.69315 -2.83127,2.6241 -2.83127,7.04363 v 17.8853 h -10.6345 v -37.1517 h 10.6345 z"
         style="fill:#00aaea;fill-opacity:1;stroke-width:1.72638059"
         id="path1060" />
      <path
         inkscape:connector-curvature="0"
         d="m -597.05138,336.70907 q 5.86969,0 10.35828,2.34788 4.55765,2.34787 7.04363,6.6293 2.48599,4.28142 2.48599,9.94395 0,5.59347 -2.48599,9.94395 -2.48598,4.28143 -7.04363,6.69836 -4.48859,2.34788 -10.35828,2.34788 -5.93875,0 -10.4964,-2.34788 -4.48858,-2.41693 -6.97457,-6.69836 -2.48599,-4.35048 -2.48599,-9.94395 0,-5.66253 2.48599,-9.94395 2.48599,-4.28143 6.97457,-6.6293 4.55765,-2.34788 10.4964,-2.34788 z m 0,8.83907 q -4.14331,0 -6.76741,2.83126 -2.55505,2.83127 -2.55505,7.38891 0,4.55765 2.55505,7.38891 2.6241,2.83126 6.76741,2.83126 4.07426,0 6.6293,-2.83126 2.6241,-2.83126 2.6241,-7.38891 0,-4.55764 -2.6241,-7.38891 -2.55504,-2.83126 -6.6293,-2.83126 z"
         style="fill:#00aaea;fill-opacity:1;stroke-width:1.72638059"
         id="path1062" />
    </g>
    <g
       aria-label="Mo"
       transform="matrix(0,-0.26458333,0.26458333,0,3.2694949,42.697618)"
       style="font-style:normal;font-variant:normal;font-weight:normal;font-stretch:normal;font-size:68.43565369px;line-height:1.25;font-family:'Montserrat Alternates';-inkscape-font-specification:'Montserrat Alternates';letter-spacing:0px;word-spacing:0px;fill:#68be5a;fill-opacity:1;stroke:none;stroke-width:1.71089149"
       id="text1005">
      <path
         inkscape:connector-curvature="0"
         d="m -514.11778,325.10617 q 4.58519,0 8.14384,2.18994 3.55866,2.18994 5.54329,6.22764 1.98463,3.96927 1.98463,9.17038 v 31.06979 h -10.9497 v -28.46924 q 0,-4.51675 -2.46368,-7.25418 -2.39525,-2.73742 -6.43296,-2.73742 -3.01116,0 -5.40641,1.57402 -2.32681,1.57402 -3.69553,4.31144 -1.30028,2.669 -1.30028,6.02234 v 26.55304 h -10.9497 v -28.46924 q 0,-4.44831 -2.46368,-7.18574 -2.46369,-2.80586 -6.43295,-2.80586 -3.01117,0 -5.40642,1.57402 -2.32681,1.57402 -3.69553,4.31144 -1.30027,2.669 -1.30027,6.02234 v 26.55304 h -10.81284 v -48.24714 h 10.81284 v 7.25418 q 2.39524,-3.62709 6.1592,-5.61172 3.76397,-2.05307 8.48603,-2.05307 4.9958,0 8.75976,2.66899 3.76396,2.66899 5.54329,7.32261 2.25837,-4.72206 6.36451,-7.32261 4.10614,-2.66899 9.51256,-2.66899 z"
         style="fill:#68be5a;fill-opacity:1;stroke-width:1.71089149"
         id="path1065" />
      <path
         inkscape:connector-curvature="0"
         d="m -472.3314,336.60336 q 5.81704,0 10.26535,2.32681 4.51676,2.32681 6.98044,6.56982 2.46368,4.24301 2.46368,9.85474 0,5.54328 -2.46368,9.85473 -2.46368,4.24301 -6.98044,6.63826 -4.44831,2.32681 -10.26535,2.32681 -5.88546,0 -10.40221,-2.32681 -4.44832,-2.39525 -6.91201,-6.63826 -2.46368,-4.31145 -2.46368,-9.85473 0,-5.61173 2.46368,-9.85474 2.46369,-4.24301 6.91201,-6.56982 4.51675,-2.32681 10.40221,-2.32681 z m 0,8.75976 q -4.10613,0 -6.70669,2.80586 -2.53212,2.80586 -2.53212,7.32262 0,4.51675 2.53212,7.32261 2.60056,2.80586 6.70669,2.80586 4.03771,0 6.56983,-2.80586 2.60055,-2.80586 2.60055,-7.32261 0,-4.51676 -2.60055,-7.32262 -2.53212,-2.80586 -6.56983,-2.80586 z"
         style="fill:#68be5a;fill-opacity:1;stroke-width:1.71089149"
         id="path1067" />
    </g>
    <g
       aria-label="1.0"
       transform="matrix(0,-0.26458333,0.26458333,0,3.2694949,42.697618)"
       style="font-style:normal;font-variant:normal;font-weight:normal;font-stretch:normal;font-size:68.44254303px;line-height:1.25;font-family:'Montserrat Alternates';-inkscape-font-specification:'Montserrat Alternates';letter-spacing:0px;word-spacing:0px;fill:#b07655;fill-opacity:1;stroke:none;stroke-width:1.71106362"
       id="text1009">
      <path
         inkscape:connector-curvature="0"
         d="m -436.18262,325.40315 h 20.46432 v 47.90978 h -10.81392 v -38.73848 h -9.6504 z"
         style="fill:#b07655;fill-opacity:1;stroke-width:1.71106362"
         id="path1070" />
      <path
         inkscape:connector-curvature="0"
         d="m -400.8267,363.04655 q 2.32705,0 3.76434,1.50573 1.50574,1.50574 1.50574,3.90123 0,2.39549 -1.50574,3.96966 -1.43729,1.50574 -3.76434,1.50574 -2.2586,0 -3.76434,-1.57418 -1.50573,-1.57418 -1.50573,-3.90122 0,-2.39549 1.50573,-3.90123 1.50574,-1.50573 3.76434,-1.50573 z"
         style="fill:#b07655;fill-opacity:1;stroke-width:1.71106362"
         id="path1072" />
      <path
         inkscape:connector-curvature="0"
         d="m -368.56459,324.99249 q 10.06105,0 15.46801,6.29672 5.40696,6.29671 5.40696,18.06883 0,11.70367 -5.40696,18.06883 -5.40696,6.29671 -15.46801,6.29671 -10.1295,0 -15.6049,-6.29671 -5.40697,-6.36516 -5.40697,-18.06883 0,-11.77212 5.40697,-18.06883 5.4754,-6.29672 15.6049,-6.29672 z m 0,8.28155 q -5.1332,0 -7.52868,3.83278 -2.39549,3.83278 -2.39549,12.25122 0,8.34999 2.39549,12.25121 2.39548,3.83278 7.52868,3.83278 4.9963,0 7.39179,-3.83278 2.39549,-3.90122 2.39549,-12.25121 0,-8.41844 -2.39549,-12.25122 -2.39549,-3.83278 -7.39179,-3.83278 z"
         style="fill:#b07655;fill-opacity:1;stroke-width:1.71106362"
         id="path1074" />
    </g>
    <path
       d="m 86.699715,81.491186 q 1.058333,0 1.862667,0.49389 0.818444,0.479777 1.255889,1.368777 0.451555,0.889 0.451555,2.04611 0,1.143 -0.437444,2.01789 -0.437445,0.860776 -1.241778,1.340556 -0.790222,0.479777 -1.848556,0.479777 -0.790222,0 -1.411111,-0.296333 -0.606777,-0.310444 -1.030111,-0.889 v 3.838223 H 82.127715 V 81.561742 h 2.173111 v 1.114777 q 0.409223,-0.578556 1.016,-0.874889 0.620889,-0.310444 1.382889,-0.310444 z m -0.508,5.940777 q 0.832556,0 1.354667,-0.578554 0.522111,-0.592667 0.522111,-1.524 0,-0.917223 -0.522111,-1.49578 -0.522111,-0.592666 -1.354667,-0.592666 -0.832555,0 -1.368778,0.592666 -0.522111,0.578557 -0.522111,1.49578 0,0.945444 0.522111,1.524 0.536223,0.578554 1.368778,0.578554 z"
       style="font-style:normal;font-variant:normal;font-weight:normal;font-stretch:normal;font-size:53.33333206px;line-height:1.25;font-family:'Montserrat Alternates';-inkscape-font-specification:'Montserrat Alternates';letter-spacing:0px;word-spacing:0px;fill:#b07655;fill-opacity:1;stroke:none;stroke-width:0.26458332"
       id="path904"
       inkscape:connector-curvature="0" />
    <path
       d="m 93.735427,86.500629 q 0,0.409224 0.183444,0.62089 0.183445,0.197557 0.493889,0.197557 0.282222,0 0.733778,-0.211667 l 0.211666,1.80622 q -0.719666,0.338667 -1.439333,0.338667 -1.016,0 -1.679222,-0.66322 -0.663222,-0.677334 -0.663222,-1.947334 v -7.958666 h 2.159 z"
       style="font-style:normal;font-variant:normal;font-weight:normal;font-stretch:normal;font-size:53.33333206px;line-height:1.25;font-family:'Montserrat Alternates';-inkscape-font-specification:'Montserrat Alternates';letter-spacing:0px;word-spacing:0px;fill:#b07655;fill-opacity:1;stroke:none;stroke-width:0.26458332"
       id="path906"
       inkscape:connector-curvature="0" />
    <path
       d="m 99.817756,81.491186 q 1.199444,0 2.116664,0.479777 0.93134,0.479779 1.43934,1.354666 0.508,0.87489 0.508,2.032 0,1.143 -0.508,2.032 -0.508,0.87489 -1.43934,1.36878 -0.91722,0.479777 -2.116664,0.479777 -1.213556,0 -2.14489,-0.479777 -0.91722,-0.49389 -1.425221,-1.36878 -0.508,-0.889 -0.508,-2.032 0,-1.15711 0.508,-2.032 0.508001,-0.874887 1.425221,-1.354666 0.931334,-0.479777 2.14489,-0.479777 z m 0,1.806223 q -0.846667,0 -1.38289,0.578554 -0.52211,0.578556 -0.52211,1.50989 0,0.931333 0.52211,1.509889 0.536223,0.578554 1.38289,0.578554 0.832554,0 1.354664,-0.578554 0.53623,-0.578556 0.53623,-1.509889 0,-0.931334 -0.53623,-1.50989 -0.52211,-0.578554 -1.354664,-0.578554 z"
       style="font-style:normal;font-variant:normal;font-weight:normal;font-stretch:normal;font-size:53.33333206px;line-height:1.25;font-family:'Montserrat Alternates';-inkscape-font-specification:'Montserrat Alternates';letter-spacing:0px;word-spacing:0px;fill:#b07655;fill-opacity:1;stroke:none;stroke-width:0.26458332"
       id="path908"
       inkscape:connector-curvature="0" />
    <path
       d="m 109.50944,88.730186 q -0.42333,0.23989 -0.93133,0.381 -0.508,0.14111 -1.00189,0.14111 -1.07244,0 -1.74978,-0.66322 -0.67733,-0.663223 -0.67733,-1.848557 v -6.928553 h 2.159 v 2.088443 h 2.07433 v 1.509887 h -2.07433 v 2.963333 q 0,0.522113 0.19756,0.790224 0.21166,0.254 0.57855,0.254 0.45156,0 0.97367,-0.282224 z"
       style="font-style:normal;font-variant:normal;font-weight:normal;font-stretch:normal;font-size:53.33333206px;line-height:1.25;font-family:'Montserrat Alternates';-inkscape-font-specification:'Montserrat Alternates';letter-spacing:0px;word-spacing:0px;fill:#b07655;fill-opacity:1;stroke:none;stroke-width:0.26458332"
       id="path910"
       inkscape:connector-curvature="0" />
  </g>
</svg>
