<?xml version="1.0" encoding="UTF-8" standalone="no"?>
<!-- Created with Inkscape (http://www.inkscape.org/) -->

<svg
   xmlns:dc="http://purl.org/dc/elements/1.1/"
   xmlns:cc="http://creativecommons.org/ns#"
   xmlns:rdf="http://www.w3.org/1999/02/22-rdf-syntax-ns#"
   xmlns:svg="http://www.w3.org/2000/svg"
   xmlns="http://www.w3.org/2000/svg"
   xmlns:sodipodi="http://sodipodi.sourceforge.net/DTD/sodipodi-0.dtd"
   xmlns:inkscape="http://www.inkscape.org/namespaces/inkscape"
   version="1.1"
   id="svg10"
   width="196.74248"
   height="771.74249"
   viewBox="0 0 196.74248 771.74249"
   sodipodi:docname="Site_banner.svg"
   inkscape:version="0.92.4 (5da689c313, 2019-01-14)">
  <metadata
     id="metadata16">
    <rdf:RDF>
      <cc:Work
         rdf:about="">
        <dc:format>image/svg+xml</dc:format>
        <dc:type
           rdf:resource="http://purl.org/dc/dcmitype/StillImage" />
        <dc:title></dc:title>
      </cc:Work>
    </rdf:RDF>
  </metadata>
  <defs
     id="defs14" />
  <sodipodi:namedview
     pagecolor="#ffffff"
     bordercolor="#666666"
     borderopacity="1"
     objecttolerance="10"
     gridtolerance="10"
     guidetolerance="10"
     inkscape:pageopacity="0"
     inkscape:pageshadow="2"
     inkscape:window-width="1920"
     inkscape:window-height="1017"
     id="namedview12"
     showgrid="false"
     inkscape:zoom="0.78076374"
     inkscape:cx="-472.84295"
     inkscape:cy="432.72414"
     inkscape:window-x="-8"
     inkscape:window-y="-8"
     inkscape:window-maximized="1"
     inkscape:current-layer="svg10" />
  <g
     id="g278"
     transform="translate(855.57253,21.773551)">
    <rect
       y="-19.902313"
       x="-853.70129"
       height="768"
       width="193"
       id="rect20"
       style="opacity:1;fill:#000000;fill-opacity:1;stroke:#000000;stroke-width:3.74247646;stroke-miterlimit:4;stroke-dasharray:none;stroke-opacity:1" />
    <g
       transform="translate(-1107.7013,-19.902314)"
       id="g1054">
      <path
         d="m 349.59525,76.66854 h -47.63877 l 21.62062,21.620697 c 28.72988,28.729813 29.46276,28.729813 58.19257,0 l 3.88441,-3.884416 C 377.29898,83.631123 364.25329,76.66854 349.59525,76.66854 Z"
         style="fill:#ae6946;fill-rule:evenodd;stroke-width:0.76277202"
         id="path2"
         inkscape:connector-curvature="0" />
      <path
         d="m 348.33327,69.19284 h 1.94225 c 16.7102,0 31.66144,7.768833 41.37237,19.861745 l 14.62143,-14.584812 c 2.93163,-2.931638 2.93163,-7.658841 0,-10.59048 l -7.80537,-7.842059 -18.13941,0.03661 c -12.45935,0 -23.74609,5.020413 -31.99127,13.118993 z"
         style="fill:#61c44b;fill-rule:evenodd;stroke-width:0.76277202"
         id="path4"
         inkscape:connector-curvature="0" />
      <path
         d="m 390.95163,48.56161 -8.5017,-8.501705 c -28.72981,-28.729885 -29.46268,-28.729885 -58.19257,0 l -23.81939,23.819388 c -1.42913,1.502509 -2.19869,3.408066 -2.19869,5.313547 h 40.12654 c 9.71093,-12.53265 24.9187,-20.594617 41.95872,-20.594617 z"
         style="fill:#00adef;fill-rule:evenodd;stroke-width:0.76277202"
         id="path6"
         inkscape:connector-curvature="0" />
      <path
         d="m 391.75788,70.695348 c -0.80625,0 -1.46582,-0.659645 -1.46582,-1.502508 0,-0.806174 0.65957,-1.502432 1.46582,-1.502432 0.84279,0 1.50244,0.696258 1.50244,1.502432 0,0.842863 -0.65965,1.502508 -1.50244,1.502508 z m -22.9766,-4.250852 c -0.84278,0 -1.50243,-0.696259 -1.50243,-1.502432 0,-0.842863 0.65965,-1.502509 1.50243,-1.502509 0.80625,0 1.50251,0.659646 1.50251,1.502509 0,0.806173 -0.69626,1.502432 -1.50251,1.502432 z m 22.9766,-0.219907 c -1.64903,0 -2.96832,1.319214 -2.96832,2.968251 0,0.439814 0.0733,0.80625 0.2199,1.172686 l -2.08877,2.088775 c -4.65398,-3.371377 -9.74762,-5.973192 -15.17116,-7.732144 -0.10991,-1.539122 -1.39251,-2.785034 -2.96825,-2.785034 -1.64903,0 -3.00486,1.355904 -3.00486,3.004941 0,1.649037 1.35583,3.004864 3.00486,3.004864 0.91617,0 1.72234,-0.439738 2.27199,-1.099383 5.49685,1.795641 10.62717,4.470759 15.31776,7.988664 0.18322,0.146605 0.43974,0.219907 0.65957,0.219907 0.29321,0 0.58635,-0.109915 0.80618,-0.329823 l 2.78503,-2.785033 c 0.32982,0.183218 0.73295,0.25652 1.13607,0.25652 1.68565,0 3.00487,-1.355903 3.00487,-3.00494 0,-1.649037 -1.31922,-2.968251 -3.00487,-2.968251 z"
         style="fill:#94d67a;fill-rule:evenodd;stroke-width:0.76277202"
         id="path8"
         inkscape:connector-curvature="0" />
      <path
         d="m 392.41745,79.710093 c -0.84286,0 -1.50243,-0.659645 -1.50243,-1.465819 0,-0.842863 0.65957,-1.502508 1.50243,-1.502508 0.80618,0 1.50243,0.659645 1.50243,1.502508 0,0.806174 -0.69625,1.465819 -1.50243,1.465819 z M 382.34001,64.75877 c -0.80617,0 -1.50243,-0.659569 -1.50243,-1.465743 0,-0.842863 0.69626,-1.502509 1.50243,-1.502509 0.84287,0 1.50244,0.659646 1.50244,1.502509 0,0.806174 -0.65957,1.465743 -1.50244,1.465743 z m 18.24932,0.916165 -3.18815,-3.188158 c -0.21984,-0.219831 -0.51297,-0.329823 -0.80618,-0.329823 h -11.46995 c -0.47635,-1.099307 -1.53905,-1.868868 -2.78504,-1.868868 -1.64903,0 -3.00486,1.319215 -3.00486,3.004941 0,1.649037 1.35583,2.968251 3.00486,2.968251 1.24599,0 2.3453,-0.769561 2.78504,-1.868944 h 10.9936 l 2.89495,2.895025 c 0.76956,0.732871 0.76956,1.978783 0,2.748344 l -5.42346,5.423538 c -0.36651,-0.146605 -0.76956,-0.219907 -1.17269,-0.219907 -1.64903,0 -3.00486,1.319214 -3.00486,3.00494 0,1.649037 1.35583,2.968251 3.00486,2.968251 1.64904,0 2.96825,-1.319214 2.96825,-2.968251 0,-0.439738 -0.0733,-0.842863 -0.21983,-1.172685 l 5.42346,-5.460152 c 1.64904,-1.612347 1.64904,-4.287465 0,-5.936502 z"
         style="fill:#94d67a;fill-rule:evenodd;stroke-width:0.76277202"
         id="path10"
         inkscape:connector-curvature="0" />
    </g>
    <g
       transform="translate(-1145.7013,-19.902314)"
       id="g1047">
      <g
         id="text1000"
         style="font-style:normal;font-variant:normal;font-weight:normal;font-stretch:normal;font-size:69.05522156px;line-height:1.25;font-family:'Montserrat Alternates';-inkscape-font-specification:'Montserrat Alternates';letter-spacing:0px;word-spacing:0px;fill:#00aaea;fill-opacity:1;stroke:none;stroke-width:1.72638059"
         transform="rotate(-90)"
         aria-label="Agro">
        <path
           id="path1056"
           style="fill:#00aaea;fill-opacity:1;stroke-width:1.72638059"
           d="m -740.0205,345.89341 q 0,-6.28402 2.62409,-10.97978 2.6241,-4.69575 7.45797,-7.25079 4.90292,-2.55505 11.46316,-2.55505 6.62931,0 11.53223,2.55505 4.90292,2.55504 7.52702,7.25079 2.69315,4.69576 2.69315,10.97978 v 28.31264 h -10.91073 V 362.2595 h -21.47617 v 11.94655 h -10.91072 z m 32.38689,0 q 0,-5.17914 -2.90032,-8.21757 -2.90031,-3.03843 -7.87229,-3.03843 -4.97198,0 -7.8723,3.03843 -2.83126,3.03843 -2.83126,8.21757 v 7.59608 h 21.47617 z"
           inkscape:connector-curvature="0" />
        <path
           id="path1058"
           style="fill:#00aaea;fill-opacity:1;stroke-width:1.72638059"
           d="m -652.26427,337.05435 v 33.69894 q 0,5.2482 -2.48598,9.11529 -2.48599,3.93615 -6.97458,6.00781 -4.48859,2.14071 -10.35829,2.14071 -4.55764,0 -8.70095,-1.31205 -4.07426,-1.31205 -7.45797,-3.59087 l 3.93615,-7.45797 q 5.2482,3.72899 11.53222,3.72899 4.55765,0 7.2508,-2.27883 2.69315,-2.20976 2.69315,-6.0078 v -4.21237 q -1.86449,2.6241 -4.69575,4.0052 -2.83126,1.38111 -6.49119,1.38111 -4.76481,0 -8.49379,-2.20977 -3.65993,-2.27882 -5.73159,-6.35308 -2.0026,-4.07426 -2.0026,-9.39151 0,-5.2482 2.0026,-9.18434 2.07166,-4.00521 5.73159,-6.21497 3.72898,-2.20977 8.49379,-2.20977 3.59087,0 6.42213,1.45016 2.83127,1.3811 4.76481,3.93615 v -5.04103 z m -19.2664,27.1387 q 3.86709,0 6.28402,-2.6241 2.41693,-2.69315 2.41693,-6.97458 0,-4.28142 -2.41693,-6.97458 -2.41693,-2.69315 -6.28402,-2.69315 -3.8671,0 -6.28403,2.69315 -2.41693,2.69316 -2.48599,6.97458 0.0691,4.28143 2.41694,6.97458 2.41693,2.6241 6.35308,2.6241 z"
           inkscape:connector-curvature="0" />
        <path
           id="path1060"
           style="fill:#00aaea;fill-opacity:1;stroke-width:1.72638059"
           d="m -631.92535,343.7527 q 1.93355,-3.45276 5.04103,-5.24819 3.10749,-1.79544 7.2508,-1.8645 v 10.01301 q -0.55244,-0.0691 -1.65732,-0.0691 -4.90292,0 -7.80324,2.69315 -2.83127,2.6241 -2.83127,7.04363 v 17.8853 h -10.6345 v -37.1517 h 10.6345 z"
           inkscape:connector-curvature="0" />
        <path
           id="path1062"
           style="fill:#00aaea;fill-opacity:1;stroke-width:1.72638059"
           d="m -597.05138,336.70907 q 5.86969,0 10.35828,2.34788 4.55765,2.34787 7.04363,6.6293 2.48599,4.28142 2.48599,9.94395 0,5.59347 -2.48599,9.94395 -2.48598,4.28143 -7.04363,6.69836 -4.48859,2.34788 -10.35828,2.34788 -5.93875,0 -10.4964,-2.34788 -4.48858,-2.41693 -6.97457,-6.69836 -2.48599,-4.35048 -2.48599,-9.94395 0,-5.66253 2.48599,-9.94395 2.48599,-4.28143 6.97457,-6.6293 4.55765,-2.34788 10.4964,-2.34788 z m 0,8.83907 q -4.14331,0 -6.76741,2.83126 -2.55505,2.83127 -2.55505,7.38891 0,4.55765 2.55505,7.38891 2.6241,2.83126 6.76741,2.83126 4.07426,0 6.6293,-2.83126 2.6241,-2.83126 2.6241,-7.38891 0,-4.55764 -2.6241,-7.38891 -2.55504,-2.83126 -6.6293,-2.83126 z"
           inkscape:connector-curvature="0" />
      </g>
      <g
         id="text1005"
         style="font-style:normal;font-variant:normal;font-weight:normal;font-stretch:normal;font-size:68.43565369px;line-height:1.25;font-family:'Montserrat Alternates';-inkscape-font-specification:'Montserrat Alternates';letter-spacing:0px;word-spacing:0px;fill:#68be5a;fill-opacity:1;stroke:none;stroke-width:1.71089149"
         transform="rotate(-90)"
         aria-label="Mo">
        <path
           id="path1065"
           style="fill:#68be5a;fill-opacity:1;stroke-width:1.71089149"
           d="m -514.11778,325.10617 q 4.58519,0 8.14384,2.18994 3.55866,2.18994 5.54329,6.22764 1.98463,3.96927 1.98463,9.17038 v 31.06979 h -10.9497 v -28.46924 q 0,-4.51675 -2.46368,-7.25418 -2.39525,-2.73742 -6.43296,-2.73742 -3.01116,0 -5.40641,1.57402 -2.32681,1.57402 -3.69553,4.31144 -1.30028,2.669 -1.30028,6.02234 v 26.55304 h -10.9497 v -28.46924 q 0,-4.44831 -2.46368,-7.18574 -2.46369,-2.80586 -6.43295,-2.80586 -3.01117,0 -5.40642,1.57402 -2.32681,1.57402 -3.69553,4.31144 -1.30027,2.669 -1.30027,6.02234 v 26.55304 h -10.81284 v -48.24714 h 10.81284 v 7.25418 q 2.39524,-3.62709 6.1592,-5.61172 3.76397,-2.05307 8.48603,-2.05307 4.9958,0 8.75976,2.66899 3.76396,2.66899 5.54329,7.32261 2.25837,-4.72206 6.36451,-7.32261 4.10614,-2.66899 9.51256,-2.66899 z"
           inkscape:connector-curvature="0" />
        <path
           id="path1067"
           style="fill:#68be5a;fill-opacity:1;stroke-width:1.71089149"
           d="m -472.3314,336.60336 q 5.81704,0 10.26535,2.32681 4.51676,2.32681 6.98044,6.56982 2.46368,4.24301 2.46368,9.85474 0,5.54328 -2.46368,9.85473 -2.46368,4.24301 -6.98044,6.63826 -4.44831,2.32681 -10.26535,2.32681 -5.88546,0 -10.40221,-2.32681 -4.44832,-2.39525 -6.91201,-6.63826 -2.46368,-4.31145 -2.46368,-9.85473 0,-5.61173 2.46368,-9.85474 2.46369,-4.24301 6.91201,-6.56982 4.51675,-2.32681 10.40221,-2.32681 z m 0,8.75976 q -4.10613,0 -6.70669,2.80586 -2.53212,2.80586 -2.53212,7.32262 0,4.51675 2.53212,7.32261 2.60056,2.80586 6.70669,2.80586 4.03771,0 6.56983,-2.80586 2.60055,-2.80586 2.60055,-7.32261 0,-4.51676 -2.60055,-7.32262 -2.53212,-2.80586 -6.56983,-2.80586 z"
           inkscape:connector-curvature="0" />
      </g>
      <g
         id="text1009"
         style="font-style:normal;font-variant:normal;font-weight:normal;font-stretch:normal;font-size:68.44254303px;line-height:1.25;font-family:'Montserrat Alternates';-inkscape-font-specification:'Montserrat Alternates';letter-spacing:0px;word-spacing:0px;fill:#b07655;fill-opacity:1;stroke:none;stroke-width:1.71106362"
         transform="rotate(-90)"
         aria-label="1.0">
        <path
           id="path1070"
           style="fill:#b07655;fill-opacity:1;stroke-width:1.71106362"
           d="m -436.18262,325.40315 h 20.46432 v 47.90978 h -10.81392 v -38.73848 h -9.6504 z"
           inkscape:connector-curvature="0" />
        <path
           id="path1072"
           style="fill:#b07655;fill-opacity:1;stroke-width:1.71106362"
           d="m -400.8267,363.04655 q 2.32705,0 3.76434,1.50573 1.50574,1.50574 1.50574,3.90123 0,2.39549 -1.50574,3.96966 -1.43729,1.50574 -3.76434,1.50574 -2.2586,0 -3.76434,-1.57418 -1.50573,-1.57418 -1.50573,-3.90122 0,-2.39549 1.50573,-3.90123 1.50574,-1.50573 3.76434,-1.50573 z"
           inkscape:connector-curvature="0" />
        <path
           id="path1074"
           style="fill:#b07655;fill-opacity:1;stroke-width:1.71106362"
           d="m -368.56459,324.99249 q 10.06105,0 15.46801,6.29672 5.40696,6.29671 5.40696,18.06883 0,11.70367 -5.40696,18.06883 -5.40696,6.29671 -15.46801,6.29671 -10.1295,0 -15.6049,-6.29671 -5.40697,-6.36516 -5.40697,-18.06883 0,-11.77212 5.40697,-18.06883 5.4754,-6.29672 15.6049,-6.29672 z m 0,8.28155 q -5.1332,0 -7.52868,3.83278 -2.39549,3.83278 -2.39549,12.25122 0,8.34999 2.39549,12.25121 2.39548,3.83278 7.52868,3.83278 4.9963,0 7.39179,-3.83278 2.39549,-3.90122 2.39549,-12.25121 0,-8.41844 -2.39549,-12.25122 -2.39549,-3.83278 -7.39179,-3.83278 z"
           inkscape:connector-curvature="0" />
      </g>
    </g>
    <g
       transform="translate(-855.57252,-21.773552)"
       id="text1541"
       style="font-style:normal;font-variant:normal;font-weight:normal;font-stretch:normal;font-size:57.34523392px;line-height:1.25;font-family:'Montserrat Alternates';-inkscape-font-specification:'Montserrat Alternates';letter-spacing:0px;word-spacing:0px;fill:#b07655;fill-opacity:1;stroke:none;stroke-width:1.4336307"
       aria-label="site">
      <path
         id="path2157"
         style="stroke-width:1.4336307"
         d="m 71.322467,157.46118 q -2.52319,-1.43363 -4.989035,-2.17912 -2.465845,-0.80284 -4.415583,-0.80284 -1.605667,0 -2.580536,0.57346 -0.974869,0.57345 -0.974869,1.72035 0,1.2616 1.318941,1.94974 1.31894,0.68814 4.300892,1.54832 3.268678,0.97487 5.390452,1.94974 2.121774,0.91752 3.670095,2.80992 1.548321,1.83504 1.548321,4.87434 0,4.58762 -3.555404,7.16816 -3.498059,2.52319 -9.003202,2.52319 -3.784785,0 -7.282844,-1.08956 -3.49806,-1.14691 -6.078595,-3.21134 l 2.867261,-5.9639 q 2.351155,1.83505 5.218417,2.86726 2.924607,0.97487 5.505142,0.97487 1.777702,0 2.809917,-0.57345 1.089559,-0.6308 1.089559,-1.83505 0,-1.31894 -1.376286,-2.06443 -1.31894,-0.74549 -4.300892,-1.60566 -3.153988,-0.91753 -5.275762,-1.83505 -2.064428,-0.91753 -3.555404,-2.75257 -1.490976,-1.8924 -1.490976,-4.87435 0,-4.58762 3.440714,-7.11081 3.440714,-2.52319 8.716475,-2.52319 3.153988,0 6.307976,0.91753 3.153988,0.86017 5.734524,2.52319 z"
         inkscape:connector-curvature="0" />
      <path
         id="path2159"
         style="stroke-width:1.4336307"
         d="m 80.443046,148.40063 h 8.831166 v 30.85174 h -8.831166 z m 4.358238,-13.70551 q 2.121774,0 3.440714,1.37628 1.376286,1.37629 1.376286,3.55541 0,2.17912 -1.376286,3.5554 -1.31894,1.37629 -3.440714,1.37629 -2.064428,0 -3.440714,-1.37629 -1.31894,-1.43363 -1.31894,-3.5554 0,-2.17912 1.31894,-3.55541 1.376286,-1.37628 3.440714,-1.37628 z"
         inkscape:connector-curvature="0" />
      <path
         id="path2161"
         style="stroke-width:1.4336307"
         d="m 114.83496,177.53201 q -1.72036,0.97487 -3.78479,1.54832 -2.06443,0.57345 -4.07151,0.57345 -4.35824,0 -7.110809,-2.69522 -2.752571,-2.69523 -2.752571,-7.51223 v -28.15651 h 8.77382 v 8.48709 h 8.42975 v 6.13594 h -8.42975 v 12.0425 q 0,2.12178 0.80283,3.21134 0.86018,1.03221 2.35116,1.03221 1.83505,0 3.95682,-1.1469 z"
         inkscape:connector-curvature="0" />
      <path
         id="path2163"
         style="stroke-width:1.4336307"
         d="m 134.37355,172.71501 q 2.23647,0 4.30089,-1.03222 2.12178,-1.03221 3.89948,-2.98195 l 5.04638,4.58762 q -5.33311,6.30798 -13.87755,6.30798 -4.87434,0 -8.60178,-1.94974 -3.6701,-2.00708 -5.73452,-5.56249 -2.06443,-3.5554 -2.06443,-8.20037 0,-4.64496 1.94974,-8.20037 2.00708,-3.61275 5.61983,-5.56248 3.61275,-2.00709 8.3724,-2.00709 6.65205,0 10.72356,3.84213 4.12886,3.78479 4.35824,10.37949 l -21.33243,5.61983 q 0.97487,2.23647 2.86726,3.49806 1.94974,1.2616 4.47293,1.2616 z m -0.74549,-18.06375 q -3.32602,0 -5.27576,2.06443 -1.94974,2.06443 -2.17912,5.9639 l 13.53348,-3.67009 q -1.43363,-4.35824 -6.0786,-4.35824 z"
         inkscape:connector-curvature="0" />
    </g>
  </g>
</svg>
